<?xml version="1.0" encoding="UTF-8"?>
<svg xmlns="http://www.w3.org/2000/svg" version="1.1" viewBox="0 0 1660.7 453.5">
  <defs>
    <style>
      .cls-1, .cls-2 {
        fill: #1d1d1b;
      }

      .cls-3 {
        fill: #fff;
      }

      .cls-3, .cls-2, .cls-4 {
        fill-rule: evenodd;
      }

      .cls-5 {
        fill: #009640;
      }

      .cls-4 {
        fill: #e30613;
      }
    </style>
  </defs>
  <g>
    <g id="Ebene_1">
      <g>
        <path id="Weiß" class="cls-3" d="M1448.2,451.4c-117.3,0-212.5-95.7-212.5-213.7V2.1h425.1v235.6c0,118-95.2,213.7-212.5,213.7Z"/>
        <path id="Schwarz" class="cls-2" d="M1654.9,237.8c0,114.8-92.6,207.8-206.7,207.8s-206.7-93-206.7-207.8V8h413.4v229.8ZM1662.9,0v237.8c0,119.2-96.1,215.8-214.7,215.8s-214.7-96.6-214.7-215.8V0h429.4Z"/>
        <path id="Grün" class="cls-5" d="M1442.9,95.2v142.5c0,71.9-38.3,134.7-95.3,169.2-29.1-17.5-53.3-42.4-70-72.2,10.4-10.8,20.5-21.8,28.4-34.6,16.1-26.1,18.5-59.2,37.6-83.5,17.7-22.5,48.8-28.8,65.5-50.9,15.8-21.1,20.7-47.9,33.9-70.5ZM1252.2,18.7h162.2c-6,6.6-11.9,13.4-17.3,20.6-20.4,27.3-18.4,65.3-39.1,92-18,23.3-48.6,29.4-65.5,51-19.1,24.4-20.4,58-38.4,83-1.2-9-1.9-18.2-1.9-27.5V18.7ZM1448.2,401.4c-7.3,0-13.2-5.9-13.2-13.2s5.9-13.2,13.2-13.2,13.2,5.9,13.2,13.2-5.9,13.2-13.2,13.2ZM1490.5,393.5c2.6,2.8,4.4,6.4,5.2,10.1-2.8,2.6-6.3,4.4-10.1,5.1.5-3.1.1-6.2-1.6-9,2.9-1.2,5.1-3.5,6.5-6.3ZM1466.3,349.6c3.5-1.6,7.4-2.2,11.3-1.8,1.6,3.5,2.2,7.4,1.8,11.2-2.8-1.5-5.9-2.1-9-1.2-.2-3.2-1.7-5.9-4-8.1ZM1417.1,359c-.5-3.8.2-7.7,1.7-11.3,3.8-.4,7.7.2,11.2,1.8-2.3,2.2-3.8,5-4,8.2-3.1-.7-6.2-.2-9,1.3ZM1410.8,408.8c-3.8-.8-7.3-2.5-10.1-5.1.8-3.8,2.6-7.3,5.2-10.1,1.4,2.8,3.5,5.1,6.5,6.3-1.7,2.7-2.1,5.8-1.6,8.9ZM1456.2,430.1c-1.9,3.4-4.7,6.2-8,8.1-3.3-1.9-6.1-4.7-8-8,3.1-.5,6-1.8,8-4.3,2.1,2.4,4.9,3.7,8,4.2Z"/>
        <path id="Rot" class="cls-4" d="M1468.9,388.2c0,11.4-9.3,20.7-20.7,20.7s-20.7-9.3-20.7-20.7,9.3-20.7,20.7-20.7,20.7,9.3,20.7,20.7ZM1424.5,420.8c-8.7-6.3-11.9-17.3-3.6-21.5.6-1.5,0-3.2-1.3-4.1-9.2,1.5-13.1-9.3-9.7-19.5,3.3-10.2,12.7-16.7,19.3-10,1.6,0,3-1,3.5-2.5-4.3-8.3,4.8-15.3,15.5-15.3,10.7,0,19.8,7,15.5,15.3.4,1.5,1.9,2.6,3.5,2.5,6.6-6.6,16-.2,19.3,10.1,3.3,10.2-.5,21-9.7,19.5-1.3.9-1.9,2.6-1.3,4.1,8.4,4.2,5.1,15.2-3.6,21.5-8.7,6.3-20.1,6-21.6-3.2-1.2-1-3-1-4.3,0-1.4,9.3-12.9,9.5-21.6,3.2ZM1507.8,279.3h37.2c0-15.3-11.4-25.4-11.4-43.3s4.6-19.1,16.9-22.6c3.1,2.8,5.8,6.3,8.1,11.1.1,15.7,2.7,26.5,6.5,34.3,0,0-8.5,6.4-8.5,30.1,0,0-33.6-1.5-37.6,2.8h-5.3v7.6c-8.3,2.7-16,2.8-21.5.3,0-6.7,7.2-12.9,7.2-12.9.8,0,1.4.1,2,.1,3.5,0,6.4-2.9,6.4-6.4s0-.8,0-1.1ZM1466.6,158.7c-4-4-4-12.5-4-14,.6-.3,1.1-.7,1.6-1.2,2.5-2.5,2.5-6.6,0-9.1-.4-.4-.8-.7-1.2-1,3.6-10.7,10.7-16.2,13.5-31.4h11l26.3,20.6c-4.7,5.3-8.6,11.5-10.4,19.3l-14-26c-9,0-14.5,7.4-9.8,18.5l-3.4,3.4,5.2,5.5c-3.9,7.7-9.1,13.1-14.8,15.2ZM1574.6,343.9c0-6.6,6.5-12.3,7.1-12.9.3,0,.7,0,1,0,3.5,0,6.4-2.9,6.4-6.4s-.2-1.9-.6-2.7c17.6-31.4,13-36-14.4-58.3-7.5-6.1-9.8-24-9.8-40.4-10.9-25.4-40.2-22.4-51.2-47.3l12.8.7c6.6.4,11.2-3.6,13.4-6.9,2-3.1,0-7.2-3.3-6.1-1.5,4.1-5.5,7.4-10,7.1l-31.8-1.7c-6.3,6.3-5,15.4,6.1,20.2v4.8h7.6c2.7,8.6,2.8,16.3.3,21.5-6.1,0-12.9-7.2-12.9-7.2,0-.8.1-1.4.1-2,0-3.5-2.9-6.4-6.4-6.4s-1,0-1.5.2c-3.6-5.7-3-18-12.4-31.6l7.1-8.6,25.9-8.7c.7-30.3,35.6-37.3,40.9-59.5,7.5,0,12.1-2.2,15.7-9.3.9-1.8.5-6.1-4.2-5.2-2.6,7.3-6,8.6-10.9,8.6-12.6,0-22.7-2.1-24.4,3.5-2.8,9.4-15.9,3.5-15.9,3.5l3.2-2.3c.3,0,.5,0,.8,0,2.4,0,4.4-1.3,4.4-2.9s-2-2.9-4.4-2.9c-2.4,0-4.4,1.3-4.4,2.9s0,.2,0,.3l-3,2.2c-3.9,0-4.5-3-4.6-4.5,1.5,0,2.7-1.3,2.7-2.8s-1.1-2.8-2.6-2.8c0-1.2.7-3.5,3.5-5.8l22.3-17.7c3.2-2.6,9.7-6,12.6-7.5-.3-4.9,1.5-11.3,1.5-15.8,0,0,6.6,2.8,9.3,9.2,2,4.7.7,7.7-.1,10,1.2,1.9,6.3,1.9,6.9-3,.2-1.9.2-4.2-.5-6.8,8.7.9,20.9,3.9,39.7,2-3.8,4.4-8.7,7.6-13.9,9.9,9.4,2.2,20.9,6.8,26.7,16.4-4.5,2.3-9.5,3.8-14.4,4.8,9,7.8,12.5,19.6,20.2,24.3-10,2.8-18.2,2-24.7-.2,3.1,6.4,8,13.9,14.6,17.3-9.1,4.1-17.9,6.4-24.7,7.7,2.1,3.6,5.3,8,9.1,10.9-7,.3-12.7,2.2-16,3.7-.6,8.2-2.9,25.3,18,47.2,27.7,21,34.7,36.9,12.8,65.1,0,14.3,2.4,20,9.8,34.6-.6,1.4-3.7,8.3-6.7,16.7-3.3,9.2-5.8,19.3-5.8,28.2,0,0-4.7,0-4.7,5v7.6c-8.6,2.7-17.4,2.8-22.5.3ZM1527.2,65.5c3,5,10.6,0,10.6,0,0,0-9.3-8.8-10.6,0ZM1636.3,145.2c0,12.8-11.6,18.3-11.6,27.9s11.2,16.7,11.2,27.6-8.9,13.2-14.6,11.2c0,0,3.6-.9,3.6-5.3,0-13.4-28.6-12.6-28.6-33.6s7.8-19.7,7.8-26.2-2.5-7.9-6.7-9.4c5.9-4.2,15.7-1.6,18.2,4.7,2-5.3,3.9-13.2,1.5-20.8,13.4,5.2,19.2,13.9,19.2,23.7h0ZM1453.5,18.7h190.7v219.1c0,71.9-38.3,134.7-95.3,169.2-57.1-34.4-95.3-97.3-95.3-169.2V18.7Z"/>
      </g>
      <g>
        <g>
          <path class="cls-1" d="M15.5,19.1h12.5v62.6h34.1v11.4H15.5V19.1Z"/>
          <path class="cls-1" d="M83.9,93.9c-2.1,0-4.1-.3-6-.9-1.8-.6-3.4-1.5-4.7-2.6-1.3-1.1-2.4-2.5-3.1-4.2-.8-1.7-1.1-3.6-1.1-5.8s.6-5.5,1.9-7.9c1.3-2.4,3.3-4.5,6.1-6.3,2.8-1.8,6.4-3.4,10.7-4.8,4.4-1.3,9.6-2.3,15.9-3v-1.6c0-2.7-.7-4.6-2.1-5.8-1.4-1.2-3.6-1.8-6.6-1.8s-7.1.8-10,2.2c-3,1.5-5.6,3.1-7.9,5l-6-7.7c2.9-2.6,6.5-4.9,10.8-6.8,4.3-1.9,9.3-2.9,14.8-2.9s6.5.4,8.9,1.2c2.4.8,4.4,2.1,5.9,3.7,1.5,1.6,2.6,3.6,3.2,6,.7,2.4,1,5.1,1,8.2v21.9c0,3.2.1,5.8.3,7.9.2,2.1.6,3.8,1.2,5.1h-12.4c-.3-1.1-.6-2.2-.8-3.1-.2-.9-.4-2.2-.4-3.7-2.7,2.8-5.7,4.8-8.9,5.9-3.2,1.1-6.7,1.7-10.7,1.7ZM88.4,84.4c3.2,0,6-.5,8.5-1.6,2.5-1.1,4.7-2.6,6.6-4.4v-11.7c-7.4,1-13,2.4-16.8,4.2-3.8,1.8-5.7,4.2-5.7,7.1s.7,3.7,2,4.8c1.3,1.1,3.1,1.6,5.4,1.6Z"/>
          <path class="cls-1" d="M128.8,40h12.3v7.2c.9-.9,1.9-1.9,3.2-2.9,1.2-1,2.7-1.9,4.3-2.6,1.6-.8,3.4-1.5,5.4-2,2-.5,4.2-.8,6.6-.8,4.7,0,8.4,1.4,11.2,4.1,2.8,2.7,4.2,6.7,4.2,11.9v38.1h-12.3v-35c0-5.7-2.7-8.6-8-8.6s-5.3.6-7.6,1.9c-2.3,1.3-4.6,2.9-6.9,5v36.7h-12.3v-53.1Z"/>
          <path class="cls-1" d="M207.2,93.9c-3,0-5.8-.5-8.4-1.6-2.6-1.1-4.8-2.8-6.6-5-1.9-2.3-3.3-5.1-4.4-8.5-1.1-3.4-1.6-7.4-1.6-12s.5-8.6,1.6-12.1c1.1-3.5,2.6-6.4,4.6-8.6,2-2.3,4.4-4,7.1-5.2,2.8-1.2,5.9-1.8,9.3-1.8s5.6.6,8.3,1.7c2.7,1.1,5,2.8,6.9,5v-26.6h12.3v61c0,3.2.1,5.8.3,7.9.2,2.1.7,3.8,1.2,5.1h-12.7c-.3-.7-.6-1.8-.9-3.1-.2-1.4-.4-2.7-.4-4.1-1.9,2.3-4.2,4.2-6.9,5.7-2.7,1.5-6,2.3-10,2.3ZM211.2,83.8c2.5,0,5-.7,7.2-2.1,2.3-1.4,4.2-2.9,5.6-4.6v-21.3c-1.7-2.1-3.6-3.8-5.9-4.9-2.2-1.1-4.4-1.7-6.6-1.7-4.7,0-8,1.5-10,4.4-2,3-3.1,7.4-3.1,13.4s1.1,9.9,3.4,12.6c2.2,2.8,5.4,4.2,9.4,4.2Z"/>
          <path class="cls-1" d="M272.8,94.2c-3.3,0-6.5-.5-9.6-1.6-3.1-1-5.8-2.7-8.1-4.9-2.4-2.2-4.3-5.1-5.7-8.6-1.4-3.5-2.1-7.7-2.1-12.5s.8-9.4,2.4-12.9c1.6-3.5,3.6-6.4,6.1-8.5,2.5-2.2,5.2-3.8,8.2-4.8,3-1,5.9-1.5,8.6-1.5s5.9.5,8.7,1.5c2.8,1,5.3,2.6,7.5,4.8,2.2,2.2,3.9,5.2,5.2,8.9,1.3,3.7,2,8.2,2,13.6v2.9h-36.3c.3,4.8,1.7,8.3,4.3,10.5,2.6,2.2,5.9,3.3,9.9,3.3s6.3-.5,8.6-1.6c2.2-1.1,4.3-2.6,6.3-4.5l6.5,6.4c-2.8,3.1-6,5.4-9.6,7.1-3.6,1.7-7.9,2.5-12.6,2.5ZM284.5,61.4c-.7-8.3-4.8-12.4-12.1-12.4s-2.9.2-4.3.6c-1.4.4-2.7,1.2-3.8,2.2-1.2,1-2.1,2.3-2.9,3.8-.8,1.6-1.3,3.5-1.6,5.8h24.8Z"/>
          <path class="cls-1" d="M325,94.2c-4.9,0-9.5-.8-13.6-2.4-4.1-1.6-7.4-3.6-9.8-6l6.7-7.5c2,1.7,4.4,3.2,7.3,4.4,2.9,1.2,6,1.9,9.4,1.9s5.9-.5,7.8-1.4c1.9-.9,2.8-2.5,2.8-4.7s-.3-2-.9-2.7c-.6-.7-1.5-1.4-2.6-1.9-1.1-.5-2.3-1-3.7-1.3-1.4-.4-2.9-.8-4.5-1.2-2.3-.5-4.6-1.1-7-1.8-2.4-.7-4.5-1.6-6.4-2.8-1.9-1.2-3.5-2.8-4.7-4.7-1.2-1.9-1.9-4.4-1.9-7.5s.5-4.5,1.4-6.4c1-1.9,2.3-3.5,4.1-4.9,1.7-1.4,3.8-2.4,6.2-3.2,2.4-.8,5.1-1.1,8-1.1,5.1,0,9.3.7,12.7,2,3.4,1.3,6.4,3.2,9.1,5.6l-5.9,8c-1-.8-2.1-1.5-3.4-2.2-1.2-.7-2.5-1.3-3.9-1.9-1.3-.5-2.7-.9-4-1.2-1.3-.3-2.6-.4-3.8-.4-3.4,0-5.7.5-7.1,1.5-1.3,1-1.9,2.3-1.9,3.8s.3,2,.9,2.7c.6.7,1.5,1.4,2.5,1.9,1,.5,2.2,1,3.6,1.3,1.4.4,2.9.7,4.5,1,2.3.5,4.6,1,7,1.7,2.4.7,4.6,1.6,6.5,2.7,1.9,1.2,3.5,2.7,4.8,4.6,1.3,1.9,1.9,4.5,1.9,7.6s-.6,5.2-1.7,7.3c-1.2,2.1-2.8,3.8-4.8,5.1-2,1.3-4.4,2.3-7.1,3-2.7.7-5.6,1-8.6,1Z"/>
          <path class="cls-1" d="M368.5,93.9c-2.1,0-4.1-.3-6-.9-1.8-.6-3.4-1.5-4.7-2.6-1.3-1.1-2.4-2.5-3.1-4.2-.8-1.7-1.1-3.6-1.1-5.8s.6-5.5,1.9-7.9c1.3-2.4,3.3-4.5,6.1-6.3,2.8-1.8,6.4-3.4,10.8-4.8,4.4-1.3,9.6-2.3,15.9-3v-1.6c0-2.7-.7-4.6-2.1-5.8-1.4-1.2-3.6-1.8-6.6-1.8s-7.1.8-10,2.2c-3,1.5-5.6,3.1-7.9,5l-6-7.7c2.9-2.6,6.5-4.9,10.8-6.8,4.3-1.9,9.3-2.9,14.8-2.9s6.5.4,8.9,1.2c2.4.8,4.4,2.1,5.9,3.7,1.5,1.6,2.6,3.6,3.2,6,.7,2.4,1,5.1,1,8.2v21.9c0,3.2.1,5.8.3,7.9.2,2.1.6,3.8,1.2,5.1h-12.4c-.3-1.1-.6-2.2-.8-3.1-.2-.9-.4-2.2-.4-3.7-2.7,2.8-5.7,4.8-8.9,5.9-3.2,1.1-6.8,1.7-10.8,1.7ZM373,84.4c3.2,0,6-.5,8.5-1.6,2.5-1.1,4.7-2.6,6.6-4.4v-11.7c-7.4,1-13,2.4-16.8,4.2-3.8,1.8-5.7,4.2-5.7,7.1s.7,3.7,2,4.8c1.3,1.1,3.1,1.6,5.4,1.6Z"/>
          <path class="cls-1" d="M413.4,40h12.3v7.3c2.1-2.3,4.6-4.2,7.6-5.9,3-1.6,6.5-2.5,10.6-2.5s4.1.2,5.7.6c1.6.4,3,1,4.1,1.8,1.1.7,2.1,1.6,2.8,2.7.7,1.1,1.4,2.3,1.9,3.6,2.1-2.3,4.7-4.4,7.9-6.1,3.1-1.7,6.7-2.6,10.7-2.6s9.3,1.5,11.8,4.4c2.5,2.9,3.7,6.8,3.7,11.6v38.1h-12.3v-35c0-3-.5-5.2-1.6-6.5-1-1.4-3-2.1-5.9-2.1s-4.9.6-7,1.9c-2.1,1.3-4.3,2.9-6.6,5v36.7h-12.3v-35c0-3-.5-5.2-1.5-6.5-1-1.4-3-2.1-6-2.1s-4.8.6-6.9,1.9c-2.1,1.3-4.4,2.9-6.7,5v36.7h-12.3v-53.1Z"/>
          <path class="cls-1" d="M526.4,93.8c-3.4,0-6.2-.3-8.3-1-2.1-.6-3.8-1.5-5-2.8-1.2-1.2-2-2.7-2.5-4.5-.4-1.8-.6-4-.6-6.4v-29.4h-9.2v-9.8h9.2v-18.5h12.3v18.5h13.7v9.8h-13.7v26.2c0,2.9.5,4.9,1.6,6.1,1.1,1.2,3.1,1.8,6.2,1.8s1.9,0,2.9-.2c1-.1,1.8-.3,2.4-.4v9.7c-.3,0-.8.1-1.5.2-.7.1-1.4.2-2.3.2-.9,0-1.7.1-2.7.1-.9,0-1.7,0-2.5,0Z"/>
          <path class="cls-1" d="M575.8,49.8h-9.2v-9.8h9.2v-5.4c0-2.2.3-4.3.8-6.2.5-1.9,1.5-3.6,2.7-5,1.3-1.4,3.1-2.5,5.2-3.4,2.2-.8,5-1.2,8.4-1.2s1.3,0,2,0c.7,0,1.4,0,2.1.1.7,0,1.4.1,1.9.2.6,0,1,.1,1.2.1v9.5c-.4-.1-1-.2-1.9-.3-.8,0-1.6-.1-2.4-.1-1.1,0-2.1.1-3.1.3-1,.2-1.9.5-2.6,1-.7.5-1.3,1.2-1.7,2.1-.4.9-.7,2-.7,3.5v4.7h11.6v9.8h-11.6v43.3h-12.3v-43.3Z"/>
          <path class="cls-1" d="M623.3,94.1c-4.7,0-8.4-1.4-11.1-4-2.8-2.7-4.2-6.7-4.2-12v-38.1h12.3v35.2c0,5.7,2.6,8.6,7.9,8.6s5.3-.6,7.6-1.9c2.3-1.3,4.6-2.9,6.9-5v-36.9h12.3v53.1h-12.3v-7.2c-.9.9-1.9,1.8-3.1,2.8-1.2,1-2.6,1.9-4.2,2.7-1.6.8-3.4,1.5-5.4,2-2,.5-4.2.8-6.6.8ZM616,22.6h11.2v12.1h-11.2v-12.1ZM635.8,22.6h11.3v12.1h-11.3v-12.1Z"/>
          <path class="cls-1" d="M668.9,40h12.3v8.7h.2c1.7-2.7,4-5,7-6.9,3-1.9,7-2.9,12.1-2.9h.8l-.4,11.3c-.3,0-.9-.1-1.6-.2-.8,0-1.3,0-1.6,0-4,0-7.3.9-9.9,2.5-2.6,1.7-4.8,4-6.5,6.9v33.6h-12.3v-53.1Z"/>
          <path class="cls-1" d="M736.7,19.1h12.7l35,52.8h.2V19.1h11.6v74h-11.4l-36.3-53.9h-.2v53.9h-11.6V19.1Z"/>
          <path class="cls-1" d="M823.1,93.9c-2.1,0-4.1-.3-6-.9-1.8-.6-3.4-1.5-4.7-2.6-1.3-1.1-2.4-2.5-3.1-4.2-.8-1.7-1.1-3.6-1.1-5.8s.6-5.5,1.9-7.9c1.3-2.4,3.3-4.5,6.1-6.3,2.8-1.8,6.4-3.4,10.7-4.8,4.4-1.3,9.6-2.3,15.9-3v-1.6c0-2.7-.7-4.6-2.1-5.8-1.4-1.2-3.6-1.8-6.6-1.8s-7.1.8-10,2.2c-3,1.5-5.6,3.1-7.9,5l-6-7.7c2.9-2.6,6.5-4.9,10.8-6.8,4.3-1.9,9.3-2.9,14.8-2.9s6.5.4,8.9,1.2c2.4.8,4.4,2.1,5.9,3.7,1.5,1.6,2.6,3.6,3.2,6,.7,2.4,1,5.1,1,8.2v21.9c0,3.2.1,5.8.3,7.9.2,2.1.6,3.8,1.2,5.1h-12.4c-.3-1.1-.6-2.2-.8-3.1-.2-.9-.4-2.2-.4-3.7-2.7,2.8-5.7,4.8-8.9,5.9-3.2,1.1-6.7,1.7-10.7,1.7ZM827.6,84.4c3.2,0,6-.5,8.5-1.6,2.5-1.1,4.7-2.6,6.6-4.4v-11.7c-7.4,1-13,2.4-16.8,4.2-3.8,1.8-5.7,4.2-5.7,7.1s.7,3.7,2,4.8c1.3,1.1,3.1,1.6,5.4,1.6Z"/>
          <path class="cls-1" d="M888.6,93.8c-3.4,0-6.2-.3-8.3-1-2.1-.6-3.8-1.5-5-2.8-1.2-1.2-2-2.7-2.5-4.5-.4-1.8-.6-4-.6-6.4v-29.4h-9.2v-9.8h9.2v-18.5h12.3v18.5h13.7v9.8h-13.7v26.2c0,2.9.5,4.9,1.6,6.1,1.1,1.2,3.1,1.8,6.2,1.8s1.9,0,2.9-.2c1-.1,1.8-.3,2.4-.4v9.7c-.3,0-.8.1-1.5.2-.7.1-1.4.2-2.3.2-.9,0-1.8.1-2.7.1-.9,0-1.7,0-2.5,0Z"/>
          <path class="cls-1" d="M923,94.1c-4.7,0-8.4-1.4-11.2-4-2.8-2.7-4.2-6.7-4.2-12v-38.1h12.3v35.2c0,5.7,2.7,8.6,8,8.6s5.3-.6,7.6-1.9c2.3-1.3,4.6-2.9,6.9-5v-36.9h12.3v53.1h-12.3v-7.2c-.9.9-1.9,1.8-3.2,2.8-1.2,1-2.7,1.9-4.3,2.7-1.6.8-3.4,1.5-5.4,2-2,.5-4.2.8-6.6.8Z"/>
          <path class="cls-1" d="M968.6,40h12.3v8.7h.2c1.7-2.7,4-5,7-6.9,3-1.9,7-2.9,12.1-2.9h.8l-.4,11.3c-.3,0-.9-.1-1.6-.2-.8,0-1.3,0-1.6,0-4,0-7.3.9-9.9,2.5-2.6,1.7-4.8,4-6.5,6.9v33.6h-12.3v-53.1Z"/>
          <path class="cls-1" d="M1007.1,93.1h-5.3v-13h13.8v11.3l-6.3,12.9h-5.7l3.5-11.2Z"/>
          <path class="cls-1" d="M43.2,220.3c-5.1,0-9.4-.7-13.1-2.1-3.6-1.4-6.6-3.3-8.9-5.8-2.3-2.5-4-5.4-5.1-8.9-1.1-3.5-1.6-7.3-1.6-11.5v-47h12.5v45.9c0,5.7,1.3,10.1,3.9,13.2,2.6,3.2,6.7,4.8,12.5,4.8s9.8-1.5,12.3-4.6c2.6-3.1,3.9-7.5,3.9-13.2v-46h12.3v46.9c0,4.2-.6,8-1.8,11.5-1.2,3.5-3,6.5-5.4,9-2.4,2.5-5.3,4.4-8.9,5.8-3.6,1.4-7.7,2.1-12.5,2.1Z"/>
          <path class="cls-1" d="M86.1,166h12.3v7.3c2.1-2.3,4.6-4.2,7.6-5.9,3-1.6,6.5-2.5,10.6-2.5s4.1.2,5.7.6c1.6.4,3,1,4.1,1.8,1.1.7,2.1,1.6,2.8,2.7.7,1.1,1.4,2.3,1.9,3.6,2.1-2.3,4.7-4.4,7.9-6.1,3.1-1.7,6.7-2.6,10.7-2.6s9.3,1.5,11.8,4.4c2.5,2.9,3.7,6.8,3.7,11.6v38.1h-12.3v-35c0-3-.5-5.2-1.6-6.5-1-1.4-3-2.1-5.9-2.1s-4.9.6-7,1.9c-2.1,1.3-4.3,2.9-6.6,5v36.7h-12.3v-35c0-3-.5-5.2-1.5-6.5-1-1.4-3-2.1-6-2.1s-4.8.6-6.9,1.9c-2.1,1.3-4.4,2.9-6.7,5v36.7h-12.3v-53.1Z"/>
          <path class="cls-1" d="M171.8,166h12.5l5.8,22c.4,1.5.8,2.9,1.1,4.2.3,1.3.6,2.6.9,3.9.3,1.3.6,2.7,1,4.1.3,1.4.7,3,1,4.7h.2c.4-1.8.8-3.4,1.1-4.8.3-1.4.7-2.8,1-4.1.3-1.3.6-2.6,1-3.9.4-1.3.8-2.7,1.1-4.2l5.6-21.8h10l5.9,22.2c.4,1.5.8,2.9,1.1,4.1.4,1.3.7,2.6,1,3.9.3,1.3.6,2.6.9,4,.3,1.4.6,2.9,1,4.6h.2c.4-1.7.8-3.3,1.1-4.7.3-1.4.7-2.7,1-4,.3-1.3.6-2.5,1-3.8.4-1.2.8-2.6,1.1-4.1l6-22.4h11.2l-15.8,53.1h-11.5l-9.6-36.9h-.2l-9.6,36.9h-11.4l-15.8-53.1Z"/>
          <path class="cls-1" d="M274.9,220.2c-3.3,0-6.5-.5-9.6-1.6-3.1-1-5.8-2.7-8.1-4.9-2.4-2.2-4.3-5.1-5.7-8.6-1.4-3.5-2.1-7.7-2.1-12.5s.8-9.4,2.4-12.9c1.6-3.5,3.6-6.4,6.1-8.5,2.5-2.2,5.2-3.8,8.2-4.8,3-1,5.9-1.5,8.6-1.5s5.9.5,8.7,1.5c2.8,1,5.3,2.6,7.5,4.8,2.2,2.2,3.9,5.2,5.2,8.9,1.3,3.7,2,8.2,2,13.6v2.9h-36.3c.3,4.8,1.7,8.3,4.3,10.5,2.6,2.2,5.9,3.3,9.9,3.3s6.3-.5,8.6-1.6c2.2-1.1,4.3-2.6,6.3-4.5l6.5,6.4c-2.8,3.1-6,5.4-9.6,7.1-3.6,1.7-7.9,2.5-12.6,2.5ZM286.6,187.4c-.7-8.3-4.8-12.4-12.1-12.4s-2.9.2-4.3.6c-1.4.4-2.7,1.2-3.8,2.2-1.2,1-2.1,2.3-2.9,3.8-.8,1.6-1.3,3.5-1.6,5.8h24.8Z"/>
          <path class="cls-1" d="M309.2,145.1h12.3v74h-12.3v-74Z"/>
          <path class="cls-1" d="M356.5,219.8c-3.4,0-6.2-.3-8.3-1-2.1-.6-3.8-1.5-5-2.8-1.2-1.2-2-2.7-2.5-4.5-.4-1.8-.6-4-.6-6.4v-29.4h-9.2v-9.8h9.2v-18.5h12.3v18.5h13.7v9.8h-13.7v26.2c0,2.9.5,4.9,1.6,6.1,1.1,1.2,3.1,1.8,6.2,1.8s1.9,0,2.9-.2c1-.1,1.8-.3,2.4-.4v9.7c-.3,0-.8.1-1.5.2-.7.1-1.4.2-2.3.2-.9,0-1.7.1-2.7.1-.9,0-1.7,0-2.5,0Z"/>
          <path class="cls-1" d="M416,220.1c-4.7,0-8.4-1.4-11.2-4-2.8-2.7-4.2-6.7-4.2-12v-38.1h12.3v35.2c0,5.7,2.7,8.6,8,8.6s5.3-.6,7.6-1.9c2.3-1.3,4.6-2.9,6.9-5v-36.9h12.3v53.1h-12.3v-7.2c-.9.9-1.9,1.8-3.2,2.8-1.2,1-2.7,1.9-4.3,2.7-1.6.8-3.4,1.5-5.4,2-2,.5-4.2.8-6.6.8Z"/>
          <path class="cls-1" d="M461.6,166h12.3v7.2c.9-.9,1.9-1.9,3.2-2.9,1.2-1,2.7-1.9,4.3-2.6,1.6-.8,3.4-1.5,5.4-2,2-.5,4.2-.8,6.6-.8,4.7,0,8.4,1.4,11.2,4.1,2.8,2.7,4.2,6.7,4.2,11.9v38.1h-12.3v-35c0-5.7-2.7-8.6-8-8.6s-5.3.6-7.6,1.9c-2.3,1.3-4.6,2.9-6.9,5v36.7h-12.3v-53.1Z"/>
          <path class="cls-1" d="M540,219.9c-3,0-5.8-.5-8.4-1.6-2.6-1.1-4.8-2.8-6.6-5-1.9-2.3-3.3-5.1-4.4-8.5-1.1-3.4-1.6-7.4-1.6-12s.5-8.6,1.6-12.1c1.1-3.5,2.6-6.4,4.6-8.6,2-2.3,4.4-4,7.1-5.2,2.8-1.2,5.9-1.8,9.3-1.8s5.6.6,8.3,1.7c2.7,1.1,5,2.8,6.9,5v-26.6h12.3v61c0,3.2.1,5.8.3,7.9.2,2.1.7,3.8,1.2,5.1h-12.7c-.3-.7-.6-1.8-.9-3.1-.2-1.4-.4-2.7-.4-4.1-1.9,2.3-4.2,4.2-6.9,5.7-2.7,1.5-6,2.3-10,2.3ZM544,209.8c2.5,0,5-.7,7.2-2.1,2.3-1.4,4.2-2.9,5.6-4.6v-21.3c-1.7-2.1-3.6-3.8-5.9-4.9-2.2-1.1-4.4-1.7-6.6-1.7-4.7,0-8,1.5-10,4.4-2,3-3.1,7.4-3.1,13.4s1.1,9.9,3.4,12.6c2.2,2.8,5.4,4.2,9.4,4.2Z"/>
          <path class="cls-1" d="M15.5,271.1h12.7l35,52.8h.2v-52.8h11.6v74h-11.4l-36.3-53.9h-.2v53.9h-11.6v-74Z"/>
          <path class="cls-1" d="M113.2,346.2c-3.2,0-6.3-.5-9.4-1.6-3.1-1.1-5.9-2.7-8.3-5-2.4-2.2-4.4-5.1-5.9-8.5-1.5-3.5-2.2-7.6-2.2-12.5s.7-9.1,2.2-12.6c1.5-3.5,3.4-6.3,5.9-8.5,2.4-2.2,5.2-3.9,8.3-4.9,3.1-1,6.3-1.6,9.5-1.6s6.4.5,9.5,1.6c3.1,1,5.9,2.7,8.3,4.9,2.4,2.2,4.4,5.1,5.9,8.5,1.5,3.5,2.2,7.7,2.2,12.6s-.8,9-2.2,12.5c-1.5,3.5-3.5,6.3-5.9,8.5-2.4,2.2-5.2,3.9-8.3,5-3.1,1.1-6.2,1.6-9.5,1.6ZM113.2,335.9c4.5,0,7.9-1.5,10.2-4.5,2.3-3,3.4-7.3,3.4-12.8s-.3-4.8-.8-6.9c-.5-2.1-1.4-3.9-2.5-5.4s-2.5-2.7-4.2-3.5c-1.7-.9-3.7-1.3-6.1-1.3-4.5,0-7.9,1.5-10.2,4.5-2.3,3-3.4,7.2-3.4,12.6s1.1,9.2,3.3,12.5c2.2,3.2,5.6,4.8,10.3,4.8Z"/>
          <path class="cls-1" d="M149.9,292h12.3v8.7h.2c1.7-2.7,4-5,7-6.9,3-1.9,7-2.9,12.1-2.9h.8l-.4,11.3c-.3,0-.9-.1-1.6-.2-.8,0-1.3,0-1.6,0-4,0-7.3.9-9.9,2.5-2.6,1.7-4.8,4-6.5,6.8v33.6h-12.3v-53.1Z"/>
          <path class="cls-1" d="M206.7,345.9c-3,0-5.8-.5-8.4-1.7-2.6-1.1-4.8-2.8-6.6-5-1.9-2.3-3.3-5.1-4.4-8.5-1.1-3.4-1.6-7.4-1.6-12s.5-8.6,1.6-12.1c1.1-3.5,2.6-6.4,4.6-8.6,2-2.3,4.4-4,7.1-5.2,2.8-1.2,5.9-1.8,9.3-1.8s5.6.6,8.3,1.7c2.7,1.1,5,2.8,6.9,5v-26.6h12.3v61c0,3.2.1,5.8.3,7.9.2,2.1.7,3.8,1.2,5.1h-12.7c-.3-.7-.6-1.8-.9-3.1-.2-1.4-.4-2.7-.4-4.1-1.9,2.3-4.2,4.2-6.9,5.7-2.7,1.5-6,2.3-10,2.3ZM210.7,335.8c2.5,0,5-.7,7.2-2.1,2.3-1.4,4.2-2.9,5.6-4.6v-21.3c-1.7-2.1-3.6-3.8-5.9-4.9-2.2-1.1-4.4-1.7-6.6-1.7-4.7,0-8,1.5-10,4.4-2,3-3.1,7.4-3.1,13.3s1.1,9.9,3.4,12.7c2.2,2.8,5.4,4.2,9.4,4.2Z"/>
          <path class="cls-1" d="M249.7,292h12.3v8.7h.2c1.7-2.7,4-5,7-6.9,3-1.9,7-2.9,12.1-2.9h.8l-.4,11.3c-.3,0-.9-.1-1.6-.2-.8,0-1.3,0-1.6,0-4,0-7.3.9-9.9,2.5-2.6,1.7-4.8,4-6.5,6.8v33.6h-12.3v-53.1Z"/>
          <path class="cls-1" d="M290.9,271.1h12.3v28.1c.9-.9,1.9-1.9,3.2-2.9,1.2-1,2.7-1.9,4.3-2.6,1.6-.8,3.4-1.5,5.4-2,2-.5,4.2-.8,6.6-.8,4.7,0,8.4,1.4,11.2,4.1,2.8,2.7,4.2,6.7,4.2,11.9v38.1h-12.3v-35c0-5.7-2.7-8.6-8-8.6s-5.3.6-7.6,1.9c-2.3,1.3-4.6,2.9-6.9,5v36.7h-12.3v-74Z"/>
          <path class="cls-1" d="M373.8,346.2c-3.3,0-6.5-.5-9.6-1.6-3.1-1-5.8-2.7-8.1-4.9-2.4-2.2-4.3-5.1-5.7-8.6-1.4-3.5-2.1-7.7-2.1-12.5s.8-9.4,2.4-12.9c1.6-3.5,3.6-6.3,6.1-8.5,2.5-2.2,5.2-3.8,8.2-4.8s5.9-1.5,8.6-1.5,5.9.5,8.7,1.5c2.8,1,5.3,2.6,7.5,4.8,2.2,2.2,3.9,5.2,5.2,8.9,1.3,3.7,2,8.2,2,13.6v2.9h-36.3c.3,4.8,1.7,8.3,4.3,10.5,2.6,2.2,5.9,3.3,9.9,3.3s6.3-.5,8.6-1.7c2.2-1.1,4.3-2.6,6.3-4.5l6.5,6.4c-2.8,3.1-6,5.4-9.6,7.1-3.6,1.7-7.9,2.5-12.6,2.5ZM385.5,313.4c-.7-8.3-4.8-12.4-12.1-12.4s-2.9.2-4.3.7c-1.4.4-2.7,1.2-3.8,2.2-1.2,1-2.1,2.3-2.9,3.8-.8,1.6-1.3,3.5-1.6,5.8h24.8Z"/>
          <path class="cls-1" d="M408,272.1h12.5v10.7h-12.5v-10.7ZM408.1,292h12.3v53.1h-12.3v-53.1Z"/>
          <path class="cls-1" d="M434.8,292h12.3v7.2c.9-.9,1.9-1.9,3.2-2.9,1.2-1,2.7-1.9,4.3-2.6,1.6-.8,3.4-1.5,5.4-2,2-.5,4.2-.8,6.6-.8,4.7,0,8.4,1.4,11.2,4.1,2.8,2.7,4.2,6.7,4.2,11.9v38.1h-12.3v-35c0-5.7-2.7-8.6-8-8.6s-5.3.6-7.6,1.9c-2.3,1.3-4.6,2.9-6.9,5v36.7h-12.3v-53.1Z"/>
          <path class="cls-1" d="M493.7,309.3h24.7v8.8h-24.7v-8.8Z"/>
          <path class="cls-1" d="M520.8,271.1h12.6l9.4,38.3c.7,3,1.4,5.9,2.1,8.7.7,2.8,1.3,5.6,1.8,8.5h.2c.5-2.9,1.1-5.7,1.8-8.5.6-2.8,1.3-5.7,2-8.7l8.9-38.4h12l9.2,38.6c.4,1.6.8,3.1,1.1,4.4.4,1.4.7,2.7,1,4.1.3,1.3.6,2.7.9,4,.3,1.4.6,2.8.8,4.4h.2c.3-1.6.5-3.1.8-4.4.3-1.3.6-2.7.9-4,.3-1.3.6-2.6,1-3.9.3-1.3.7-2.8,1-4.4l9.2-38.9h11.7l-19.5,74h-10.9l-13.3-56.7h-.2l-14,56.7h-11l-19.7-74Z"/>
          <path class="cls-1" d="M634.8,346.2c-3.3,0-6.5-.5-9.6-1.6-3.1-1-5.8-2.7-8.1-4.9-2.4-2.2-4.3-5.1-5.7-8.6-1.4-3.5-2.1-7.7-2.1-12.5s.8-9.4,2.4-12.9c1.6-3.5,3.6-6.3,6.1-8.5,2.5-2.2,5.2-3.8,8.2-4.8,3-1,5.9-1.5,8.6-1.5s5.9.5,8.7,1.5c2.8,1,5.3,2.6,7.5,4.8,2.2,2.2,3.9,5.2,5.2,8.9,1.3,3.7,2,8.2,2,13.6v2.9h-36.3c.3,4.8,1.7,8.3,4.3,10.5,2.6,2.2,5.9,3.3,9.9,3.3s6.3-.5,8.6-1.7c2.2-1.1,4.3-2.6,6.3-4.5l6.5,6.4c-2.8,3.1-6,5.4-9.6,7.1-3.6,1.7-7.9,2.5-12.6,2.5ZM646.5,313.4c-.7-8.3-4.8-12.4-12.1-12.4s-2.9.2-4.3.7c-1.4.4-2.7,1.2-3.8,2.2-1.2,1-2.1,2.3-2.9,3.8-.8,1.6-1.3,3.5-1.6,5.8h24.8Z"/>
          <path class="cls-1" d="M687,346.2c-4.9,0-9.5-.8-13.6-2.4-4.1-1.6-7.4-3.6-9.8-6l6.7-7.5c2,1.7,4.4,3.2,7.3,4.4,2.9,1.2,6,1.9,9.4,1.9s5.9-.5,7.8-1.4c1.9-.9,2.8-2.5,2.8-4.7s-.3-2-.9-2.7c-.6-.7-1.5-1.4-2.6-1.9-1.1-.5-2.3-1-3.7-1.3-1.4-.4-2.9-.8-4.5-1.2-2.3-.5-4.6-1.1-7-1.8-2.4-.7-4.5-1.6-6.4-2.8-1.9-1.2-3.5-2.8-4.7-4.7-1.2-1.9-1.9-4.4-1.9-7.5s.5-4.5,1.4-6.4c1-1.9,2.3-3.5,4.1-4.9,1.7-1.4,3.8-2.4,6.2-3.2,2.4-.8,5.1-1.2,8-1.2,5.1,0,9.3.7,12.7,2,3.4,1.3,6.4,3.2,9.1,5.6l-5.9,8c-1-.8-2.1-1.5-3.4-2.2-1.2-.7-2.5-1.3-3.9-1.9-1.3-.5-2.7-.9-4-1.2-1.3-.3-2.6-.4-3.8-.4-3.4,0-5.7.5-7.1,1.5-1.3,1-1.9,2.3-1.9,3.8s.3,2,.9,2.7c.6.7,1.5,1.4,2.5,1.9,1,.5,2.2,1,3.6,1.3,1.4.4,2.9.7,4.5,1,2.3.5,4.6,1,7,1.7,2.4.7,4.6,1.6,6.5,2.7,1.9,1.2,3.5,2.7,4.8,4.6,1.3,1.9,1.9,4.5,1.9,7.6s-.6,5.2-1.7,7.3c-1.2,2.1-2.8,3.8-4.8,5.1-2,1.3-4.4,2.3-7.1,3-2.7.7-5.6,1-8.6,1Z"/>
          <path class="cls-1" d="M739.5,345.8c-3.4,0-6.2-.3-8.3-1-2.1-.6-3.8-1.5-5-2.8-1.2-1.2-2-2.7-2.5-4.5-.4-1.8-.6-4-.6-6.3v-29.4h-9.2v-9.8h9.2v-18.5h12.3v18.5h13.7v9.8h-13.7v26.2c0,2.9.5,4.9,1.6,6.1,1.1,1.2,3.1,1.8,6.2,1.8s1.9,0,2.9-.2c1-.1,1.8-.3,2.4-.4v9.7c-.3,0-.8.1-1.5.2-.7.1-1.4.2-2.3.2-.9,0-1.7.1-2.7.1-.9,0-1.7,0-2.5,0Z"/>
          <path class="cls-1" d="M763.8,301.8h-9.2v-9.8h9.2v-5.4c0-2.2.3-4.3.8-6.2.5-1.9,1.5-3.6,2.7-5,1.3-1.4,3.1-2.5,5.2-3.4,2.2-.8,5-1.2,8.4-1.2s1.3,0,2,0c.7,0,1.4,0,2.1.1.7,0,1.4.1,1.9.2.6,0,1,0,1.2,0v9.5c-.4-.1-1-.2-1.9-.3-.8,0-1.6,0-2.4,0-1.1,0-2.1,0-3.1.3-1,.2-1.9.5-2.6,1-.7.5-1.3,1.2-1.7,2.1-.4.9-.7,2-.7,3.5v4.7h11.6v9.8h-11.6v43.3h-12.3v-43.3Z"/>
          <path class="cls-1" d="M806.2,345.9c-2.1,0-4.1-.3-6-.9-1.8-.6-3.4-1.5-4.7-2.6-1.3-1.1-2.4-2.5-3.1-4.2-.8-1.7-1.1-3.7-1.1-5.8s.6-5.5,1.9-7.9c1.3-2.4,3.3-4.5,6.1-6.3,2.8-1.8,6.4-3.4,10.7-4.8,4.4-1.3,9.6-2.3,15.9-3v-1.6c0-2.7-.7-4.6-2.1-5.8-1.4-1.2-3.6-1.8-6.6-1.8s-7.1.8-10,2.2c-3,1.5-5.6,3.1-7.9,5l-6-7.7c2.9-2.6,6.5-4.9,10.8-6.8,4.3-1.9,9.3-2.9,14.8-2.9s6.5.4,8.9,1.2c2.4.8,4.4,2.1,5.9,3.7,1.5,1.6,2.6,3.6,3.2,6,.7,2.4,1,5.1,1,8.2v21.9c0,3.2.1,5.8.3,7.9.2,2.1.6,3.8,1.2,5.1h-12.4c-.3-1.1-.6-2.2-.8-3.1-.2-.9-.4-2.2-.4-3.7-2.7,2.8-5.7,4.8-8.9,5.9-3.2,1.1-6.7,1.7-10.7,1.7ZM810.7,336.4c3.2,0,6-.5,8.5-1.7,2.5-1.1,4.7-2.6,6.6-4.4v-11.7c-7.4,1-13,2.4-16.8,4.2-3.8,1.8-5.7,4.2-5.7,7.1s.7,3.7,2,4.8c1.3,1.1,3.1,1.6,5.4,1.6Z"/>
          <path class="cls-1" d="M851.6,271.1h12.3v74h-12.3v-74Z"/>
          <path class="cls-1" d="M900.9,346.2c-3.3,0-6.5-.5-9.6-1.6-3.1-1-5.8-2.7-8.1-4.9-2.4-2.2-4.3-5.1-5.7-8.6-1.4-3.5-2.1-7.7-2.1-12.5s.8-9.4,2.4-12.9c1.6-3.5,3.6-6.3,6.1-8.5,2.5-2.2,5.2-3.8,8.2-4.8,3-1,5.9-1.5,8.6-1.5s5.9.5,8.7,1.5c2.8,1,5.3,2.6,7.5,4.8,2.2,2.2,3.9,5.2,5.2,8.9,1.3,3.7,2,8.2,2,13.6v2.9h-36.3c.3,4.8,1.7,8.3,4.3,10.5,2.6,2.2,5.9,3.3,9.9,3.3s6.3-.5,8.6-1.7c2.2-1.1,4.3-2.6,6.3-4.5l6.5,6.4c-2.8,3.1-6,5.4-9.6,7.1-3.6,1.7-7.9,2.5-12.6,2.5ZM912.6,313.4c-.7-8.3-4.8-12.4-12.1-12.4s-2.9.2-4.3.7c-1.4.4-2.7,1.2-3.8,2.2-1.2,1-2.1,2.3-2.9,3.8-.8,1.6-1.3,3.5-1.6,5.8h24.8Z"/>
          <path class="cls-1" d="M934.7,292h12.3v7.2c.9-.9,1.9-1.9,3.2-2.9,1.2-1,2.7-1.9,4.3-2.6,1.6-.8,3.4-1.5,5.4-2,2-.5,4.2-.8,6.6-.8,4.7,0,8.4,1.4,11.2,4.1,2.8,2.7,4.2,6.7,4.2,11.9v38.1h-12.3v-35c0-5.7-2.7-8.6-8-8.6s-5.3.6-7.6,1.9c-2.3,1.3-4.6,2.9-6.9,5v36.7h-12.3v-53.1Z"/>
        </g>
        <g>
          <path class="cls-1" d="M600.7,145.2h12.4v34.2l28.9-34.2h14.7l-25.1,28.3,28.1,45.3h-14.2l-22.1-35.7-10.4,11.5v24.2h-12.4v-73.6Z"/>
          <path class="cls-1" d="M669.1,145.2h12.2v73.6h-12.2v-73.6Z"/>
          <path class="cls-1" d="M696.1,146.2h12.4v10.6h-12.4v-10.6ZM696.2,166h12.2v52.8h-12.2v-52.8Z"/>
          <path class="cls-1" d="M722.8,166h12.2v7.3c2.1-2.3,4.6-4.2,7.6-5.8,3-1.6,6.5-2.4,10.5-2.4s4.1.2,5.7.6c1.6.4,3,1,4.1,1.7,1.1.7,2.1,1.6,2.8,2.7.7,1.1,1.4,2.3,1.9,3.6,2.1-2.3,4.7-4.3,7.8-6.1,3.1-1.7,6.6-2.6,10.7-2.6s9.3,1.5,11.7,4.4c2.5,2.9,3.7,6.8,3.7,11.5v37.9h-12.2v-34.8c0-3-.5-5.2-1.5-6.5-1-1.4-3-2-5.9-2s-4.8.6-6.9,1.9c-2.1,1.3-4.3,2.9-6.6,5v36.5h-12.2v-34.8c0-3-.5-5.2-1.5-6.5-1-1.4-3-2-5.9-2s-4.7.6-6.9,1.9c-2.1,1.3-4.3,2.9-6.7,5v36.5h-12.2v-52.8Z"/>
          <path class="cls-1" d="M826.2,219.6c-2.1,0-4.1-.3-5.9-.9-1.8-.6-3.4-1.5-4.7-2.6-1.3-1.1-2.4-2.5-3.1-4.2-.8-1.7-1.1-3.6-1.1-5.8s.6-5.5,1.9-7.9c1.3-2.4,3.3-4.5,6.1-6.3,2.8-1.8,6.3-3.4,10.7-4.7,4.3-1.3,9.6-2.3,15.8-3v-1.6c0-2.7-.7-4.6-2.1-5.8-1.4-1.2-3.6-1.8-6.6-1.8s-7,.7-10,2.2c-3,1.5-5.6,3.1-7.8,4.9l-6-7.7c2.8-2.6,6.4-4.8,10.7-6.7,4.3-1.9,9.2-2.8,14.7-2.8s6.5.4,8.9,1.2c2.4.8,4.4,2.1,5.9,3.7,1.5,1.6,2.6,3.6,3.2,6,.7,2.4,1,5.1,1,8.2v21.8c0,3.2.1,5.8.3,7.9.2,2.1.6,3.7,1.1,5.1h-12.3c-.3-1.1-.6-2.2-.8-3.1-.2-.9-.3-2.2-.3-3.7-2.7,2.8-5.7,4.7-8.8,5.9-3.2,1.1-6.7,1.7-10.7,1.7ZM830.7,210.2c3.2,0,6-.5,8.5-1.6s4.6-2.6,6.6-4.4v-11.6c-7.4,1-12.9,2.4-16.7,4.2-3.8,1.8-5.7,4.2-5.7,7.1s.7,3.7,2,4.8c1.3,1.1,3.1,1.6,5.4,1.6Z"/>
        </g>
      </g>
    </g>
  </g>
</svg>
