<?xml version="1.0" encoding="UTF-8" standalone="no"?>
<!-- Created with Inkscape (http://www.inkscape.org/) -->

<svg
   xmlns:dc="http://purl.org/dc/elements/1.1/"
   xmlns:cc="http://creativecommons.org/ns#"
   xmlns:rdf="http://www.w3.org/1999/02/22-rdf-syntax-ns#"
   xmlns:svg="http://www.w3.org/2000/svg"
   xmlns="http://www.w3.org/2000/svg"
   xmlns:sodipodi="http://sodipodi.sourceforge.net/DTD/sodipodi-0.dtd"
   xmlns:inkscape="http://www.inkscape.org/namespaces/inkscape"
   width="233.02"
   height="51.610001"
   id="svg6243"
   version="1.1"
   inkscape:version="0.48.1 "
   sodipodi:docname="Neues Dokument 2">
  <defs
     id="defs6245" />
  <sodipodi:namedview
     id="base"
     pagecolor="#ffffff"
     bordercolor="#666666"
     borderopacity="1.0"
     inkscape:pageopacity="0.0"
     inkscape:pageshadow="2"
     inkscape:zoom="3.8698682"
     inkscape:cx="115.50781"
     inkscape:cy="24.804684"
     inkscape:document-units="px"
     inkscape:current-layer="layer1"
     showgrid="false"
     fit-margin-top="0"
     fit-margin-left="0"
     fit-margin-right="0"
     fit-margin-bottom="0"
     inkscape:window-width="1024"
     inkscape:window-height="678"
     inkscape:window-x="-4"
     inkscape:window-y="-4"
     inkscape:window-maximized="1" />
  <metadata
     id="metadata6248">
    <rdf:RDF>
      <cc:Work
         rdf:about="">
        <dc:format>image/svg+xml</dc:format>
        <dc:type
           rdf:resource="http://purl.org/dc/dcmitype/StillImage" />
        <dc:title></dc:title>
      </cc:Work>
    </rdf:RDF>
  </metadata>
  <g
     inkscape:label="Ebene 1"
     inkscape:groupmode="layer"
     id="layer1"
     transform="translate(-54.80404,-256.11226)">
    <path
       inkscape:connector-curvature="0"
       style="fill:#ffffff;fill-opacity:1;fill-rule:evenodd;stroke:none"
       d="m 263.34035,306.48758 c -12.83687,0 -23.247,-10.46875 -23.247,-23.36914 l 0,-25.77637 46.49413,0 0,25.77637 c 0,12.90039 -10.41012,23.36914 -23.24713,23.36914"
       id="path85" />
    <path
       inkscape:connector-curvature="0"
       style="fill:#211e1e;fill-opacity:1;fill-rule:evenodd;stroke:none"
       d="m 286.82185,257.11258 0,26.00586 c 0,13.02734 -10.51762,23.60351 -23.4815,23.60351 -12.96375,0 -23.48137,-10.57617 -23.48137,-23.60351 l 0,-26.00586 46.96287,0 z m -0.874,26.00586 c 0,12.55371 -10.13187,22.72461 -22.6075,22.72461 -12.47549,0 -22.60737,-10.1709 -22.60737,-22.72461 l 0,-25.12696 45.21487,0 0,25.12696"
       id="path87" />
    <path
       inkscape:connector-curvature="0"
       style="fill:#00a64f;fill-opacity:1;fill-rule:nonzero;stroke:none"
       d="m 264.21935,304.15359 c -0.21,0.3711 -0.51275,0.67871 -0.879,0.88867 -0.36612,-0.20996 -0.66887,-0.51269 -0.87887,-0.8789 0.34188,-0.0488 0.65438,-0.19531 0.88388,-0.46875 0.21962,0.25879 0.53212,0.40527 0.874,0.45898 z m -4.97562,-2.3291 c -0.415,-0.083 -0.791,-0.27832 -1.1035,-0.56152 0.0875,-0.41504 0.28325,-0.79102 0.5615,-1.10352 0.16112,0.30274 0.39062,0.55664 0.71288,0.68848 -0.19038,0.29785 -0.22463,0.63476 -0.17088,0.97656 z m 0.69337,-5.44434 c -0.0487,-0.41992 0.015,-0.8496 0.1855,-1.23046 0.42,-0.0488 0.84475,0.0195 1.2305,0.19531 -0.25387,0.24414 -0.41987,0.54199 -0.43462,0.89844 -0.34175,-0.083 -0.67862,-0.0146 -0.98138,0.13671 z m 5.38575,-1.03027 c 0.38576,-0.18066 0.81538,-0.24902 1.23538,-0.20019 0.17087,0.38086 0.23437,0.80078 0.1855,1.22558 -0.30763,-0.16113 -0.6445,-0.22949 -0.98637,-0.13672 -0.0288,-0.34668 -0.19038,-0.64453 -0.43451,-0.88867 z m 2.65138,4.79981 c 0.28313,0.3125 0.4785,0.69824 0.56637,1.11328 -0.3125,0.2832 -0.69337,0.47851 -1.1035,0.56152 0.0538,-0.3418 0.0125,-0.68359 -0.17575,-0.98144 0.32226,-0.13672 0.55175,-0.38086 0.71288,-0.69336 z m -4.63388,0.86914 c -0.80074,0 -1.44524,-0.64453 -1.44524,-1.44532 0,-0.80078 0.6445,-1.44531 1.44524,-1.44531 0.80088,0 1.44538,0.64453 1.44538,1.44531 0,0.80079 -0.6445,1.44532 -1.44538,1.44532 z m -21.44037,-41.86524 17.73437,0 c -0.65912,0.72754 -1.29887,1.46485 -1.88962,2.25586 -2.23637,2.9834 -2.01663,7.14356 -4.2725,10.06348 -1.97262,2.54883 -5.31737,3.21777 -7.15812,5.57617 -2.09475,2.6709 -2.23638,6.34277 -4.209,9.07715 -0.13188,-0.98145 -0.20513,-1.99219 -0.20513,-3.00781 l 0,-23.96485 z m 20.8545,8.37403 0,15.59082 c 0,7.86132 -4.17975,14.73144 -10.42475,18.49609 -3.17875,-1.91406 -5.83012,-4.63867 -7.66125,-7.89063 1.13775,-1.18164 2.24613,-2.37793 3.11525,-3.78418 1.76275,-2.85644 2.02638,-6.46972 4.11138,-9.13085 1.92874,-2.46582 5.34175,-3.14942 7.15337,-5.57129 1.73338,-2.30469 2.26563,-5.23438 3.706,-7.70996"
       id="path89" />
    <path
       inkscape:connector-curvature="0"
       style="fill:#eb1923;fill-opacity:1;fill-rule:evenodd;stroke:none"
       d="m 263.92636,259.15359 20.84962,0 0,23.96485 c 0,7.86132 -4.17975,14.73144 -10.42487,18.49609 -6.24513,-3.76465 -10.42475,-10.63477 -10.42475,-18.49609 l 0,-23.96485 z m 19.99024,13.84278 c 0,1.40136 -1.26462,2.00195 -1.26462,3.05175 0,1.23535 1.22062,1.83106 1.22062,3.02246 0,1.23536 -0.97162,1.44043 -1.60149,1.22559 0,0 0.40037,-0.0879 0.40037,-0.57129 0,-1.45996 -3.13475,-1.38672 -3.13475,-3.67676 0,-1.20117 0.85938,-2.15332 0.85938,-2.86132 0,-0.36133 -0.27838,-0.86915 -0.74226,-1.03028 0.64463,-0.4541 1.72363,-0.1709 1.99713,0.51758 0.21975,-0.57129 0.41988,-1.43555 0.166,-2.27051 1.46975,0.56153 2.09962,1.51856 2.09962,2.58789 l 0,0.005 z m -11.93362,-8.72071 c 0.32712,0.55176 1.167,0 1.167,0 0,0 -1.01563,-0.95703 -1.167,0 z m 5.18063,30.44434 c 0,-0.72266 0.713,-1.34278 0.78125,-1.40625 0.0387,0.01 0.0737,0.01 0.11249,0.01 0.39063,0 0.69826,-0.31738 0.69826,-0.70313 0,-0.10253 -0.02,-0.20507 -0.0637,-0.29785 1.92874,-3.4375 1.42087,-3.94043 -1.56738,-6.38183 -0.82037,-0.66407 -1.06937,-2.61719 -1.06937,-4.40918 -1.1865,-2.77832 -4.3945,-2.45606 -5.6055,-5.17578 l 1.40137,0.0781 c 0.71788,0.0342 1.22563,-0.40528 1.46488,-0.75684 0.22462,-0.33691 0,-0.79102 -0.35638,-0.66406 -0.16612,0.44433 -0.6055,0.80566 -1.09375,0.77148 l -3.47662,-0.18066 c -0.69825,0.68359 -0.542,1.68457 0.66412,2.20215 l 0,0.51757 0.83,0 c 0.29788,0.94239 0.3125,1.78711 0.0337,2.35352 -0.66412,0 -1.416,-0.79102 -1.416,-0.79102 0.0125,-0.083 0.015,-0.15136 0.015,-0.22461 0,-0.38085 -0.3125,-0.70312 -0.70312,-0.70312 -0.0538,0 -0.1025,0.01 -0.15625,0.0195 -0.39063,-0.625 -0.33213,-1.96289 -1.35263,-3.45703 l 0.7715,-0.94238 2.83212,-0.95215 c 0.0775,-3.31543 3.89638,-4.08203 4.48238,-6.50391 0.81537,0 1.32325,-0.23926 1.71875,-1.01562 0.0975,-0.2002 0.0537,-0.67383 -0.459,-0.57618 -0.28325,0.81055 -0.664,0.94727 -1.19137,0.94727 -1.37213,0 -2.4805,-0.22949 -2.666,0.38574 -0.3125,1.02539 -1.73838,0.37598 -1.73838,0.37598 l 0.34675,-0.24903 c 0.0337,0 0.0637,0.005 0.0925,0.005 0.26363,0 0.4785,-0.13671 0.4785,-0.30761 0,-0.18067 -0.21487,-0.31739 -0.4785,-0.31739 -0.2685,0 -0.48337,0.13672 -0.48337,0.31739 0,0.005 0,0.0146 0,0.0293 l -0.32226,0.23926 c -0.42487,0 -0.50299,-0.33692 -0.51275,-0.49805 0.17088,0.01 0.29301,-0.13184 0.29301,-0.30273 0,-0.1709 -0.1225,-0.3125 -0.28325,-0.3125 0.015,-0.12696 0.0825,-0.39063 0.38575,-0.625 l 2.44137,-1.94336 c 0.3565,-0.28321 1.0645,-0.65918 1.37213,-0.82032 -0.0337,-0.52734 0.166,-1.23047 0.166,-1.72851 0,0 0.71287,0.30761 1.01562,1.00586 0.21488,0.51758 0.0775,0.83496 -0.02,1.09375 0.13675,0.20508 0.6885,0.20508 0.752,-0.32715 0.0288,-0.20996 0.0237,-0.4541 -0.0588,-0.74219 0.94725,0.10254 2.29,0.42481 4.34563,0.21973 -0.41013,0.47851 -0.94726,0.83008 -1.5185,1.08398 1.02537,0.23926 2.29,0.74707 2.91987,1.79688 -0.49313,0.24902 -1.03025,0.41504 -1.56737,0.51758 0.9815,0.85449 1.36725,2.14355 2.20712,2.65625 -1.09375,0.30273 -1.99225,0.21972 -2.69538,-0.0195 0.34176,0.69336 0.86913,1.51367 1.59663,1.88476 -0.99112,0.44922 -1.95313,0.69824 -2.70013,0.84473 0.23438,0.39062 0.57613,0.87402 0.99125,1.18164 -0.76175,0.0342 -1.38675,0.24414 -1.73837,0.41016 -0.0687,0.89843 -0.3125,2.75878 1.96287,5.16113 3.03225,2.29492 3.794,4.03808 1.40138,7.11914 0,1.5625 0.25888,2.19238 1.07425,3.78906 -0.0775,0.16113 -0.40525,0.90332 -0.73237,1.82617 -0.37113,1.00586 -0.6445,2.10938 -0.6445,3.08106 0,0 -0.51275,0 -0.51275,0.54199 l 0,0.83984 c -0.94238,0.29297 -1.90425,0.30274 -2.46588,0.0293 z m -11.80663,-20.24414 c -0.4345,-0.43457 -0.43938,-1.36231 -0.43938,-1.53321 0.0637,-0.0293 0.11751,-0.0732 0.17575,-0.12207 0.27338,-0.27344 0.27338,-0.71777 0,-0.99609 -0.0437,-0.0439 -0.0925,-0.0781 -0.14162,-0.10743 0.3955,-1.16699 1.17187,-1.77246 1.48437,-3.43262 l 1.20613,0 2.87587,2.25586 c -0.51262,0.57618 -0.94237,1.25489 -1.13762,2.11426 l -1.52838,-2.84668 c -0.9765,0 -1.582,0.81055 -1.07425,2.02149 l -0.36612,0.37597 0.56637,0.60059 c -0.42962,0.84472 -0.99612,1.43066 -1.62112,1.66992 z m 4.502,13.18847 4.07225,0 c 0,-1.67968 -1.24513,-2.77832 -1.24513,-4.74121 0,-1.28418 0.503,-2.08984 1.84088,-2.4707 0.33688,0.29785 0.63475,0.68848 0.88862,1.21094 0.0125,1.72363 0.29788,2.90039 0.70313,3.75488 0,0 -0.918,0.70313 -0.918,3.2959 0,0 -3.67675,-0.1709 -4.11612,0.3125 l -0.58113,0 0,0.83008 c -0.89837,0.29297 -1.74313,0.30273 -2.34862,0.0293 0,-0.73731 0.79587,-1.41114 0.79587,-1.41114 0.0775,0.005 0.1465,0.0147 0.21975,0.0147 0.39063,0 0.69825,-0.3125 0.69825,-0.70312 0,-0.0439 0,-0.0781 -0.0125,-0.12208 z m -9.11138,15.47364 c -0.94725,-0.69336 -1.3085,-1.88477 -0.39062,-2.35352 0.0588,-0.15625 0,-0.34668 -0.14163,-0.44433 -1.01062,0.16601 -1.43062,-1.01075 -1.06924,-2.12891 0.36612,-1.11816 1.39162,-1.82617 2.11912,-1.09863 0.17088,0.005 0.332,-0.10743 0.38088,-0.27344 -0.47363,-0.91797 0.52237,-1.67481 1.69424,-1.67481 1.17188,0 2.16801,0.75684 1.69438,1.67481 0.0488,0.16601 0.21,0.27832 0.38087,0.27344 0.7275,-0.72754 1.75288,-0.0195 2.11913,1.09863 0.36137,1.11816 -0.0588,2.29492 -1.06938,2.12891 -0.14637,0.0977 -0.20987,0.28808 -0.1415,0.44433 0.90813,0.46875 0.55663,1.66016 -0.39549,2.35352 -0.94738,0.68847 -2.19738,0.65918 -2.3585,-0.35645 -0.13175,-0.10254 -0.32713,-0.10254 -0.45888,0 -0.16125,1.01563 -1.41125,1.04492 -2.36337,0.35645 z m 4.85351,-3.56446 c 0,1.25 -1.01076,2.26563 -2.26076,2.26563 -1.25,0 -2.26562,-1.01563 -2.26562,-2.26563 0,-1.25 1.01562,-2.26562 2.26562,-2.26562 1.25,0 2.26076,1.01562 2.26076,2.26562"
       id="path91" />
    <path
       inkscape:connector-curvature="0"
       style="fill:#211e1e;fill-opacity:1;fill-rule:nonzero;stroke:none"
       d="m 55.928357,257.61551 1.367125,0 0,6.86035 3.711,0 0,1.24511 -5.078125,0 0,-8.10546 z m 0,0"
       id="path93" />
    <path
       inkscape:connector-curvature="0"
       style="fill:#211e1e;fill-opacity:1;fill-rule:nonzero;stroke:none"
       d="m 63.355107,265.81863 c -0.234375,0 -0.454125,-0.0391 -0.65925,-0.0977 -0.19525,-0.0635 -0.366125,-0.16113 -0.512625,-0.29297 -0.1465,-0.12695 -0.26375,-0.2832 -0.341875,-0.46387 -0.0875,-0.19531 -0.1225,-0.40527 -0.1225,-0.63476 0,-0.32227 0.05875,-0.61524 0.19525,-0.87891 0.1465,-0.25879 0.36625,-0.48828 0.65925,-0.68359 0.30275,-0.20996 0.693375,-0.38086 1.171875,-0.5127 0.48825,-0.14648 1.074125,-0.25879 1.75775,-0.3418 l 0,-0.17089 c 0,-0.29297 -0.0875,-0.50293 -0.244125,-0.63477 -0.1465,-0.12695 -0.38575,-0.19531 -0.708,-0.19531 -0.410125,0 -0.776375,0.083 -1.098625,0.24414 -0.332,0.16601 -0.610375,0.3418 -0.8545,0.53711 l -0.659125,-0.83008 c 0.302625,-0.29297 0.69325,-0.53711 1.171875,-0.73242 0.46875,-0.20996 1.00575,-0.31738 1.61125,-0.31738 0.390625,0 0.712875,0.0488 0.976625,0.14648 0.273375,0.083 0.493125,0.21484 0.659125,0.39062 0.15625,0.18067 0.2735,0.4004 0.34175,0.65918 0.0775,0.26368 0.1225,0.56153 0.1225,0.90332 l 0,2.39258 c 0,0.3418 0,0.62989 0.025,0.85449 0.02875,0.2295 0.0775,0.41504 0.1465,0.56153 l -1.367125,0 c -0.03875,-0.12695 -0.06875,-0.24414 -0.0975,-0.3418 -0.02,-0.0977 -0.02375,-0.22461 -0.02375,-0.39062 -0.3125,0.29297 -0.63475,0.50781 -0.9765,0.63476 -0.341875,0.12696 -0.7325,0.19531 -1.171875,0.19531 z m 0.48825,-1.0498 c 0.3515,0 0.664,-0.0537 0.92775,-0.1709 0.273375,-0.12696 0.5175,-0.29297 0.732375,-0.48828 l 0,-1.29395 c -0.82025,0.11719 -1.4355,0.27832 -1.8555,0.48828 -0.410125,0.19532 -0.61025,0.44922 -0.61025,0.75684 0,0.24414 0.07375,0.4248 0.219625,0.53711 0.1465,0.11719 0.341875,0.1709 0.586,0.1709 z m 0,0"
       id="path95" />
    <path
       inkscape:connector-curvature="0"
       style="fill:#211e1e;fill-opacity:1;fill-rule:nonzero;stroke:none"
       d="m 68.267232,259.91043 1.34275,0 0,0.78125 c 0.0975,-0.0977 0.205,-0.19531 0.34175,-0.29297 0.1465,-0.1123 0.297875,-0.20996 0.463875,-0.29297 0.17575,-0.0977 0.371125,-0.1709 0.586,-0.21973 0.2245,-0.0488 0.46875,-0.0732 0.732375,-0.0732 0.517625,0 0.92775,0.14648 1.22075,0.43945 0.302625,0.29297 0.46375,0.72754 0.46375,1.29394 l 0,4.17481 -1.367125,0 0,-3.83301 c 0,-0.61523 -0.288125,-0.92773 -0.8545,-0.92773 -0.293,0 -0.576125,0.0732 -0.830125,0.21972 -0.244125,0.13184 -0.502875,0.3125 -0.75675,0.53711 l 0,4.00391 -1.34275,0 0,-5.81055 z m 0,0"
       id="path97" />
    <path
       inkscape:connector-curvature="0"
       style="fill:#211e1e;fill-opacity:1;fill-rule:nonzero;stroke:none"
       d="m 76.841357,265.81863 c -0.327125,0 -0.63475,-0.0635 -0.92775,-0.1709 -0.27825,-0.12695 -0.522375,-0.31738 -0.732375,-0.56152 -0.19525,-0.25879 -0.3515,-0.56641 -0.463875,-0.92774 -0.1125,-0.37109 -0.170875,-0.81054 -0.170875,-1.31835 0,-0.50293 0.05875,-0.94239 0.170875,-1.31836 0.131875,-0.39063 0.30275,-0.70801 0.51275,-0.95215 0.209875,-0.25879 0.473625,-0.44434 0.78125,-0.56153 0.307625,-0.12695 0.649375,-0.19531 1.025375,-0.19531 0.307625,0 0.610375,0.0684 0.90325,0.19531 0.293,0.11719 0.546875,0.29297 0.756875,0.53711 l 0,-2.92968 1.34275,0 0,6.68945 c 0,0.3418 0.0125,0.62988 0.025,0.85449 0.03375,0.22949 0.0825,0.41504 0.146375,0.56152 l -1.3915,0 c -0.03375,-0.0781 -0.06375,-0.19531 -0.0975,-0.34179 -0.015,-0.14649 -0.025,-0.29297 -0.025,-0.43946 -0.21,0.24415 -0.463875,0.45899 -0.756875,0.63477 -0.292875,0.15625 -0.659125,0.24414 -1.098625,0.24414 z m 0.4395,-1.12305 c 0.27825,0 0.537125,-0.0732 0.78125,-0.21972 0.25875,-0.14649 0.473625,-0.31739 0.63475,-0.5127 l 0,-2.31933 c -0.180625,-0.22461 -0.400375,-0.40528 -0.659125,-0.53711 -0.24425,-0.12696 -0.478625,-0.19532 -0.708,-0.19532 -0.5225,0 -0.893625,0.16602 -1.123125,0.48829 -0.21,0.32714 -0.317375,0.81543 -0.317375,1.46484 0,0.62012 0.1225,1.08398 0.36625,1.3916 0.244125,0.29297 0.585875,0.43945 1.025375,0.43945 z m 0,0"
       id="path99" />
    <path
       inkscape:connector-curvature="0"
       style="fill:#211e1e;fill-opacity:1;fill-rule:nonzero;stroke:none"
       d="m 84.019107,265.84305 c -0.36125,0 -0.708,-0.0635 -1.04975,-0.1709 -0.332125,-0.1123 -0.625,-0.29297 -0.879,-0.53711 -0.263625,-0.24414 -0.4785,-0.55176 -0.63475,-0.92774 -0.166,-0.39062 -0.244125,-0.85449 -0.244125,-1.3916 0,-0.55176 0.0825,-1.01562 0.268625,-1.3916 0.17575,-0.39063 0.3955,-0.69824 0.659125,-0.92773 0.2735,-0.24415 0.57125,-0.41504 0.903375,-0.5127 0.32225,-0.1123 0.639625,-0.1709 0.952125,-0.1709 0.32225,0 0.639625,0.0586 0.952125,0.1709 0.30275,0.0977 0.57125,0.26855 0.805625,0.5127 0.244125,0.24414 0.424875,0.57128 0.561625,0.97656 0.146375,0.39062 0.219625,0.8789 0.219625,1.46484 l 0,0.31738 -3.955,0 c 0.0125,0.52247 0.170875,0.90332 0.463875,1.14747 0.292875,0.24414 0.6445,0.36621 1.074125,0.36621 0.371125,0 0.683625,-0.0537 0.92775,-0.1709 0.254,-0.12696 0.49325,-0.29785 0.708,-0.5127 l 0.708,0.70801 c -0.3125,0.3418 -0.67375,0.60547 -1.074125,0.78125 -0.390625,0.17578 -0.849625,0.26856 -1.36725,0.26856 z m 1.294,-3.58887 c -0.0875,-0.90821 -0.53225,-1.36719 -1.34275,-1.36719 -0.1465,0 -0.307625,0.0244 -0.463875,0.0732 -0.1465,0.0488 -0.288125,0.13183 -0.415125,0.24414 -0.136625,0.11719 -0.23925,0.26367 -0.317375,0.43945 -0.0875,0.16602 -0.1465,0.36621 -0.19525,0.61035 l 2.734375,0 z m 0,0"
       id="path101" />
    <path
       inkscape:connector-curvature="0"
       style="fill:#211e1e;fill-opacity:1;fill-rule:nonzero;stroke:none"
       d="m 89.736857,265.84305 c -0.537125,0 -1.04,-0.0879 -1.48925,-0.24415 -0.459,-0.17578 -0.82025,-0.40527 -1.074125,-0.68359 l 0.732375,-0.80566 c 0.205125,0.18066 0.46875,0.34179 0.78125,0.48828 0.32225,0.13183 0.668875,0.19531 1.04975,0.19531 0.351625,0 0.63475,-0.0488 0.830125,-0.14648 0.205125,-0.1123 0.317375,-0.28321 0.317375,-0.5127 0,-0.12695 -0.03875,-0.22461 -0.0975,-0.29297 -0.06875,-0.0781 -0.166,-0.15137 -0.293,-0.21972 -0.1175,-0.0635 -0.25875,-0.1123 -0.415,-0.14649 -0.1465,-0.0488 -0.3125,-0.0879 -0.488375,-0.12207 -0.244125,-0.0635 -0.502875,-0.12696 -0.75675,-0.19532 -0.26375,-0.0781 -0.503,-0.18554 -0.708,-0.31738 -0.214875,-0.12695 -0.38575,-0.29785 -0.51275,-0.51269 -0.13675,-0.20997 -0.19525,-0.47852 -0.19525,-0.80567 0,-0.25879 0.04875,-0.49316 0.1465,-0.70801 0.1075,-0.20996 0.253875,-0.39062 0.439375,-0.53711 0.195375,-0.14648 0.42,-0.25879 0.683625,-0.34179 0.253875,-0.0781 0.546875,-0.12208 0.878875,-0.12208 0.546875,0 1.005875,0.0732 1.36725,0.21973 0.371,0.14648 0.712875,0.3418 1.025375,0.58594 l -0.65925,0.8789 c -0.0975,-0.0781 -0.219625,-0.16113 -0.366125,-0.24414 -0.13675,-0.0781 -0.268625,-0.14648 -0.415125,-0.19531 -0.1465,-0.0635 -0.292875,-0.1123 -0.439375,-0.14649 -0.1465,-0.0293 -0.288125,-0.0488 -0.415125,-0.0488 -0.38075,0 -0.63475,0.0586 -0.78125,0.1709 -0.136625,0.11719 -0.19525,0.2539 -0.19525,0.41504 0,0.11718 0.02875,0.21484 0.0975,0.29297 0.05875,0.083 0.151375,0.15625 0.268625,0.21972 0.1075,0.0488 0.244125,0.0977 0.390625,0.14649 0.15625,0.0342 0.327125,0.0732 0.512625,0.12207 0.244125,0.0488 0.493125,0.11719 0.756875,0.19531 0.253875,0.0684 0.493125,0.16602 0.708,0.29297 0.205125,0.11719 0.376,0.27832 0.512625,0.48828 0.1465,0.21485 0.21975,0.48829 0.21975,0.83008 0,0.3125 -0.06875,0.58106 -0.19525,0.80567 -0.1175,0.22949 -0.288125,0.41504 -0.51275,0.56152 -0.234375,0.14648 -0.48825,0.25391 -0.78125,0.31738 -0.293,0.0781 -0.6055,0.12208 -0.92775,0.12208 z m 0,0"
       id="path103" />
    <path
       inkscape:connector-curvature="0"
       style="fill:#211e1e;fill-opacity:1;fill-rule:nonzero;stroke:none"
       d="m 94.482982,265.81863 c -0.234375,0 -0.454125,-0.0391 -0.659125,-0.0977 -0.195375,-0.0635 -0.36625,-0.16113 -0.51275,-0.29297 -0.1465,-0.12695 -0.263625,-0.2832 -0.34175,-0.46387 -0.0875,-0.19531 -0.1225,-0.40527 -0.1225,-0.63476 0,-0.32227 0.05875,-0.61524 0.195375,-0.87891 0.1465,-0.25879 0.366125,-0.48828 0.659125,-0.68359 0.30275,-0.20996 0.693375,-0.38086 1.171875,-0.5127 0.48825,-0.14648 1.07425,-0.25879 1.757875,-0.3418 l 0,-0.17089 c 0,-0.29297 -0.0875,-0.50293 -0.24425,-0.63477 -0.146375,-0.12695 -0.385625,-0.19531 -0.708,-0.19531 -0.410125,0 -0.776375,0.083 -1.098625,0.24414 -0.332,0.16601 -0.61025,0.3418 -0.8545,0.53711 l -0.659125,-0.83008 c 0.30275,-0.29297 0.693375,-0.53711 1.171875,-0.73242 0.46875,-0.20996 1.005875,-0.31738 1.611375,-0.31738 0.390625,0 0.712875,0.0488 0.9765,0.14648 0.2735,0.083 0.493125,0.21484 0.65925,0.39062 0.15625,0.18067 0.273375,0.4004 0.34175,0.65918 0.0775,0.26368 0.1225,0.56153 0.1225,0.90332 l 0,2.39258 c 0,0.3418 0,0.62989 0.025,0.85449 0.02875,0.2295 0.0775,0.41504 0.1465,0.56153 l -1.36725,0 c -0.03875,-0.12695 -0.06875,-0.24414 -0.0975,-0.3418 -0.02,-0.0977 -0.02375,-0.22461 -0.02375,-0.39062 -0.3125,0.29297 -0.634875,0.50781 -0.976625,0.63476 -0.34175,0.12696 -0.732375,0.19531 -1.171875,0.19531 z m 0.48825,-1.0498 c 0.351625,0 0.664125,-0.0537 0.92775,-0.1709 0.2735,-0.12696 0.517625,-0.29297 0.7325,-0.48828 l 0,-1.29395 c -0.820375,0.11719 -1.435625,0.27832 -1.8555,0.48828 -0.410125,0.19532 -0.610375,0.44922 -0.610375,0.75684 0,0.24414 0.07375,0.4248 0.21975,0.53711 0.1465,0.11719 0.34175,0.1709 0.585875,0.1709 z m 0,0"
       id="path105" />
    <path
       inkscape:connector-curvature="0"
       style="fill:#211e1e;fill-opacity:1;fill-rule:nonzero;stroke:none"
       d="m 99.395107,259.91043 1.342753,0 0,0.80566 c 0.22462,-0.24414 0.49812,-0.4541 0.83012,-0.63476 0.32225,-0.17578 0.71288,-0.26856 1.17188,-0.26856 0.22462,0 0.42475,0.0244 0.61037,0.0732 0.17575,0.0342 0.32225,0.0928 0.43938,0.1709 0.127,0.083 0.2295,0.19043 0.31737,0.31738 0.0775,0.11719 0.15138,0.24414 0.21975,0.39063 0.22463,-0.25879 0.51275,-0.47852 0.8545,-0.65918 0.34175,-0.19532 0.73238,-0.29297 1.17188,-0.29297 0.586,0 1.00587,0.16601 1.2695,0.48828 0.2735,0.3125 0.41512,0.72754 0.41512,1.24512 l 0,4.1748 -1.34287,0 0,-3.83301 c 0,-0.32226 -0.0638,-0.56152 -0.17088,-0.708 -0.1175,-0.14649 -0.332,-0.21973 -0.63475,-0.21973 -0.28325,0 -0.53712,0.0732 -0.78125,0.21973 -0.23437,0.13183 -0.46387,0.3125 -0.708,0.5371 l 0,4.00391 -1.34275,0 0,-3.83301 c 0,-0.32226 -0.0637,-0.56152 -0.17087,-0.708 -0.1175,-0.14649 -0.337,-0.21973 -0.65925,-0.21973 -0.28313,0 -0.53225,0.0732 -0.75675,0.21973 -0.23438,0.13183 -0.47863,0.3125 -0.7325,0.5371 l 0,4.00391 -1.342753,0 0,-5.81055 z m 0,0"
       id="path107" />
    <path
       inkscape:connector-curvature="0"
       style="fill:#211e1e;fill-opacity:1;fill-rule:nonzero;stroke:none"
       d="m 111.74861,265.79422 c -0.376,0 -0.67388,-0.0391 -0.90325,-0.0977 -0.2295,-0.0635 -0.40538,-0.16113 -0.53713,-0.29296 -0.13187,-0.14649 -0.21975,-0.31739 -0.26862,-0.5127 -0.0487,-0.19531 -0.0738,-0.41992 -0.0738,-0.68359 l 0,-3.22266 -1.001,0 0,-1.07422 1.001,0 0,-2.02637 1.34275,0 0,2.02637 1.48937,0 0,1.07422 -1.48937,0 0,2.88086 c 0,0.3125 0.0588,0.53711 0.171,0.68359 0.1125,0.13184 0.34175,0.19532 0.6835,0.19532 0.0975,0 0.19537,-0.005 0.293,-0.0244 0.1125,-0.0147 0.21,-0.0293 0.293,-0.0488 l 0,1.0498 c -0.0487,0 -0.1125,0.005 -0.19538,0.0244 -0.0637,0.01 -0.14637,0.0244 -0.24412,0.0244 -0.0825,0.01 -0.17088,0.0244 -0.2685,0.0244 -0.0975,0 -0.19538,0 -0.293,0 z m 0,0"
       id="path109" />
    <path
       inkscape:connector-curvature="0"
       style="fill:#211e1e;fill-opacity:1;fill-rule:nonzero;stroke:none"
       d="m 117.17348,260.98465 -1.0255,0 0,-1.07422 1.0255,0 0,-0.58594 c 0,-0.24414 0.0238,-0.46875 0.0725,-0.68359 0.0587,-0.20996 0.15625,-0.39063 0.293,-0.53711 0.1465,-0.16114 0.34188,-0.28321 0.586,-0.36621 0.24413,-0.0976 0.54688,-0.14649 0.92775,-0.14649 0.0588,0 0.12688,0.01 0.19525,0.0244 0.0775,0 0.15625,0 0.24413,0 0.0775,0 0.15137,0.01 0.21975,0.0244 0.0588,0 0.1025,0 0.1225,0 l 0,1.0498 c -0.0388,-0.0146 -0.0975,-0.0244 -0.19538,-0.0244 -0.0975,-0.0147 -0.19037,-0.0244 -0.2685,-0.0244 -0.1175,0 -0.23437,0.0195 -0.34187,0.0488 -0.0975,0.0195 -0.19038,0.0586 -0.2685,0.12208 -0.0875,0.0488 -0.1465,0.12207 -0.19538,0.21972 -0.0387,0.0977 -0.0487,0.21973 -0.0487,0.36621 l 0,0.5127 1.2695,0 0,1.07422 -1.2695,0 0,4.73632 -1.34275,0 0,-4.73632 z m 0,0"
       id="path113" />
    <path
       inkscape:connector-curvature="0"
       style="fill:#211e1e;fill-opacity:1;fill-rule:nonzero;stroke:none"
       d="m 122.36386,265.81863 c -0.5225,0 -0.9375,-0.14648 -1.24513,-0.43945 -0.293,-0.29297 -0.4395,-0.72266 -0.4395,-1.29395 l 0,-4.1748 1.36725,0 0,3.85742 c 0,0.62012 0.28325,0.92773 0.8545,0.92773 0.30763,0 0.58588,-0.0635 0.83,-0.19531 0.24425,-0.14648 0.49813,-0.33203 0.75688,-0.56152 l 0,-4.02832 1.34275,0 0,5.81054 -1.34275,0 0,-0.78125 c -0.0975,0.0977 -0.21975,0.20508 -0.36625,0.31739 -0.13175,0.0976 -0.28313,0.19043 -0.46375,0.26855 -0.16125,0.083 -0.3565,0.14649 -0.586,0.19531 -0.21,0.0586 -0.44925,0.0977 -0.708,0.0977 z m 1.36712,-7.8125 1.22075,0 0,1.31836 -1.22075,0 0,-1.31836 z m -2.14837,0 1.22075,0 0,1.31836 -1.22075,0 0,-1.31836 z m 0,0"
       id="path115" />
    <path
       inkscape:connector-curvature="0"
       style="fill:#211e1e;fill-opacity:1;fill-rule:nonzero;stroke:none"
       d="m 127.35411,259.91043 1.34275,0 0,0.95215 0.025,0 c 0.17587,-0.29297 0.42487,-0.53711 0.75687,-0.73243 0.32225,-0.20996 0.76175,-0.31738 1.31838,-0.31738 l 0.0975,0 -0.0487,1.2207 c -0.0387,0 -0.0925,0 -0.171,0 -0.0875,-0.0146 -0.1465,-0.0244 -0.19525,-0.0244 -0.42975,0 -0.78125,0.0977 -1.07425,0.29297 -0.28325,0.18066 -0.51263,0.42481 -0.708,0.73242 l 0,3.68653 -1.34275,0 0,-5.81055 z m 0,0"
       id="path117" />
    <path
       inkscape:connector-curvature="0"
       style="fill:#211e1e;fill-opacity:1;fill-rule:nonzero;stroke:none"
       d="m 134.78086,257.61551 1.39162,0 3.8085,5.78613 0.025,0 0,-5.78613 1.2695,0 0,8.10546 -1.24512,0 -3.9795,-5.88378 0,0 0,5.88378 -1.2695,0 0,-8.10546 z m 0,0"
       id="path121" />
    <path
       inkscape:connector-curvature="0"
       style="fill:#211e1e;fill-opacity:1;fill-rule:nonzero;stroke:none"
       d="m 144.22423,265.81863 c -0.2295,0 -0.44925,-0.0391 -0.65925,-0.0977 -0.19525,-0.0635 -0.36612,-0.16113 -0.51262,-0.29297 -0.1465,-0.12695 -0.25888,-0.2832 -0.34188,-0.46387 -0.0825,-0.19531 -0.1225,-0.40527 -0.1225,-0.63476 0,-0.32227 0.0637,-0.61524 0.19525,-0.87891 0.1465,-0.25879 0.36625,-0.48828 0.65925,-0.68359 0.30763,-0.20996 0.69825,-0.38086 1.17188,-0.5127 0.48825,-0.14648 1.07425,-0.25879 1.75775,-0.3418 l 0,-0.17089 c 0,-0.29297 -0.0825,-0.50293 -0.24413,-0.63477 -0.1465,-0.12695 -0.38087,-0.19531 -0.708,-0.19531 -0.40525,0 -0.7715,0.083 -1.09862,0.24414 -0.32713,0.16601 -0.61038,0.3418 -0.8545,0.53711 l -0.65913,-0.83008 c 0.30763,-0.29297 0.69825,-0.53711 1.17188,-0.73242 0.47362,-0.20996 1.01075,-0.31738 1.61125,-0.31738 0.39062,0 0.71775,0.0488 0.97662,0.14648 0.27825,0.083 0.498,0.21484 0.65913,0.39062 0.16112,0.18067 0.27837,0.4004 0.34187,0.65918 0.0825,0.26368 0.1225,0.56153 0.1225,0.90332 l 0,2.39258 c 0,0.3418 0.0125,0.62989 0.0237,0.85449 0.0337,0.2295 0.0838,0.41504 0.1465,0.56153 l -1.36712,0 c -0.0337,-0.12695 -0.0637,-0.24414 -0.0975,-0.3418 -0.015,-0.0977 -0.025,-0.22461 -0.025,-0.39062 -0.30763,0.29297 -0.63475,0.50781 -0.9765,0.63476 -0.34188,0.12696 -0.7325,0.19531 -1.17188,0.19531 z m 0.48825,-1.0498 c 0.3565,0 0.669,-0.0537 0.92775,-0.1709 0.27825,-0.12696 0.5225,-0.29297 0.73238,-0.48828 l 0,-1.29395 c -0.81538,0.11719 -1.43063,0.27832 -1.85538,0.48828 -0.40537,0.19532 -0.61037,0.44922 -0.61037,0.75684 0,0.24414 0.0737,0.4248 0.21975,0.53711 0.14637,0.11719 0.34175,0.1709 0.58587,0.1709 z m 0,0"
       id="path123" />
    <path
       inkscape:connector-curvature="0"
       style="fill:#211e1e;fill-opacity:1;fill-rule:nonzero;stroke:none"
       d="m 151.38723,265.79422 c -0.38075,0 -0.67862,-0.0391 -0.90325,-0.0977 -0.23437,-0.0635 -0.41012,-0.16113 -0.53712,-0.29296 -0.13675,-0.14649 -0.21975,-0.31739 -0.2685,-0.5127 -0.0488,-0.19531 -0.0738,-0.41992 -0.0738,-0.68359 l 0,-3.22266 -1.001,0 0,-1.07422 1.001,0 0,-2.02637 1.34275,0 0,2.02637 1.48925,0 0,1.07422 -1.48925,0 0,2.88086 c 0,0.3125 0.0538,0.53711 0.17087,0.68359 0.1075,0.13184 0.34175,0.19532 0.68363,0.19532 0.0975,0 0.19525,-0.005 0.293,-0.0244 0.1075,-0.0147 0.205,-0.0293 0.29287,-0.0488 l 0,1.0498 c -0.0487,0 -0.1175,0.005 -0.19525,0.0244 -0.0687,0.01 -0.1465,0.0244 -0.24412,0.0244 -0.0875,0.01 -0.171,0.0244 -0.26863,0.0244 -0.0975,0 -0.19525,0 -0.293,0 z m 0,0"
       id="path125" />
    <path
       inkscape:connector-curvature="0"
       style="fill:#211e1e;fill-opacity:1;fill-rule:nonzero;stroke:none"
       d="m 155.16173,265.81863 c -0.5225,0 -0.9375,-0.14648 -1.24512,-0.43945 -0.293,-0.29297 -0.4395,-0.72266 -0.4395,-1.29395 l 0,-4.1748 1.36725,0 0,3.85742 c 0,0.62012 0.28312,0.92773 0.8545,0.92773 0.30762,0 0.58587,-0.0635 0.83,-0.19531 0.24412,-0.14648 0.49325,-0.33203 0.75687,-0.56152 l 0,-4.02832 1.34275,0 0,5.81054 -1.34275,0 0,-0.78125 c -0.0975,0.0977 -0.21975,0.20508 -0.36625,0.31739 -0.13175,0.0976 -0.288,0.19043 -0.46387,0.26855 -0.166,0.083 -0.36125,0.14649 -0.58588,0.19531 -0.21487,0.0586 -0.44925,0.0977 -0.708,0.0977 z m 0,0"
       id="path127" />
    <path
       inkscape:connector-curvature="0"
       style="fill:#211e1e;fill-opacity:1;fill-rule:nonzero;stroke:none"
       d="m 160.14711,259.91043 1.34275,0 0,0.95215 0.0238,0 c 0.18062,-0.29297 0.42975,-0.53711 0.75687,-0.73243 0.32712,-0.20996 0.76662,-0.31738 1.31837,-0.31738 l 0.0975,0 -0.0487,1.2207 c -0.0338,0 -0.0875,0 -0.17087,0 -0.0825,-0.0146 -0.1465,-0.0244 -0.19525,-0.0244 -0.42488,0 -0.78125,0.0977 -1.07425,0.29297 -0.27838,0.18066 -0.51275,0.42481 -0.708,0.73242 l 0,3.68653 -1.34275,0 0,-5.81055 z m 0,0"
       id="path129" />
    <path
       inkscape:connector-curvature="0"
       style="fill:#211e1e;fill-opacity:1;fill-rule:nonzero;stroke:none"
       d="m 164.36586,265.72097 -0.58601,0 0,-1.41601 1.51363,0 0,1.2207 -0.6835,1.41602 -0.63475,0 0.39062,-1.22071 z m 0,0"
       id="path131" />
    <path
       inkscape:connector-curvature="0"
       style="fill:#211e1e;fill-opacity:1;fill-rule:nonzero;stroke:none"
       d="m 58.955607,278.96805 c -0.556625,0 -1.035125,-0.0732 -1.440375,-0.21973 -0.390625,-0.14649 -0.71775,-0.34668 -0.976625,-0.61035 -0.263625,-0.27344 -0.449125,-0.60059 -0.5615,-0.97657 -0.1175,-0.39062 -0.170875,-0.81054 -0.170875,-1.26953 l 0,-5.15136 1.36725,0 0,5.02929 c 0,0.62012 0.136625,1.1084 0.415,1.46485 0.293,0.34179 0.747,0.51269 1.367125,0.51269 0.61525,0 1.0645,-0.1709 1.342875,-0.51269 0.292875,-0.3418 0.439375,-0.82032 0.439375,-1.44043 l 0,-5.05371 1.34275,0 0,5.15136 c 0,0.45899 -0.06875,0.87403 -0.19525,1.24512 -0.131875,0.37598 -0.327125,0.70313 -0.586,0.97656 -0.263625,0.27832 -0.585875,0.48828 -0.9765,0.63477 -0.390625,0.14648 -0.849625,0.21973 -1.36725,0.21973 z m 0,0"
       id="path133" />
    <path
       inkscape:connector-curvature="0"
       style="fill:#211e1e;fill-opacity:1;fill-rule:nonzero;stroke:none"
       d="m 63.643107,273.03543 1.342875,0 0,0.80566 c 0.2245,-0.24414 0.502875,-0.4541 0.83,-0.63476 0.32225,-0.17578 0.712875,-0.26856 1.171875,-0.26856 0.224625,0 0.42975,0.0244 0.610375,0.0732 0.17575,0.0342 0.32225,0.0928 0.4395,0.1709 0.126875,0.083 0.234375,0.19043 0.317375,0.31738 0.0775,0.11719 0.151375,0.24414 0.219625,0.39063 0.224625,-0.25879 0.51275,-0.47852 0.8545,-0.65918 0.341875,-0.19531 0.7325,-0.29297 1.171875,-0.29297 0.586,0 1.005875,0.16601 1.269625,0.48828 0.273375,0.3125 0.415,0.72754 0.415,1.24512 l 0,4.1748 -1.34275,0 0,-3.83301 c 0,-0.32226 -0.05875,-0.56152 -0.170875,-0.708 -0.1175,-0.14649 -0.32725,-0.21973 -0.634875,-0.21973 -0.27825,0 -0.537,0.0732 -0.78125,0.21973 -0.229375,0.13183 -0.46375,0.3125 -0.708,0.53711 l 0,4.0039 -1.34275,0 0,-3.83301 c 0,-0.32226 -0.05875,-0.56152 -0.170875,-0.708 -0.1175,-0.14649 -0.336875,-0.21973 -0.659125,-0.21973 -0.278375,0 -0.53225,0.0732 -0.756875,0.21973 -0.2295,0.13183 -0.473625,0.3125 -0.732375,0.53711 l 0,4.0039 -1.342875,0 0,-5.81054 z m 0,0"
       id="path135" />
    <path
       inkscape:connector-curvature="0"
       style="fill:#211e1e;fill-opacity:1;fill-rule:nonzero;stroke:none"
       d="m 73.008357,273.03543 1.36725,0 0.63475,2.41699 c 0.04875,0.16602 0.0825,0.31738 0.1225,0.46387 0.04875,0.13183 0.0825,0.26855 0.1225,0.41504 0.02875,0.14648 0.05875,0.30273 0.0975,0.46386 0.03,0.14649 0.05875,0.3125 0.0975,0.48828 l 0.025,0 c 0.04875,-0.19531 0.0825,-0.36621 0.1225,-0.51269 0.02875,-0.16113 0.05875,-0.30762 0.0975,-0.43945 0.02875,-0.14649 0.05875,-0.29297 0.0975,-0.43946 0.04875,-0.14648 0.0975,-0.29785 0.1465,-0.46386 l 0.610375,-2.39258 1.098625,0 0.63475,2.4414 c 0.04875,0.14649 0.0825,0.29297 0.1225,0.43946 0.04875,0.14648 0.0825,0.29297 0.1225,0.43945 0.02875,0.13184 0.05875,0.27832 0.0975,0.43945 0.02875,0.14649 0.07375,0.3125 0.1225,0.48828 l 0.025,0 c 0.02875,-0.17578 0.05875,-0.34179 0.0975,-0.48828 0.04875,-0.16113 0.0825,-0.30761 0.1225,-0.43945 0.02875,-0.14648 0.05875,-0.2832 0.0975,-0.41504 0.04875,-0.14648 0.0825,-0.29785 0.1225,-0.46387 l 0.659125,-2.4414 1.22075,0 -1.709,5.81054 -1.2695,0 -1.049875,-4.02832 -0.02375,0 -1.049875,4.02832 -1.245125,0 -1.733375,-5.81054 z m 0,0"
       id="path137" />
    <path
       inkscape:connector-curvature="0"
       style="fill:#211e1e;fill-opacity:1;fill-rule:nonzero;stroke:none"
       d="m 84.282857,278.96805 c -0.3565,0 -0.708125,-0.0635 -1.049875,-0.1709 -0.327125,-0.1123 -0.620125,-0.29297 -0.878875,-0.53711 -0.25875,-0.24414 -0.473625,-0.55176 -0.63475,-0.92774 -0.161125,-0.39062 -0.244125,-0.85449 -0.244125,-1.3916 0,-0.55176 0.0875,-1.01562 0.2685,-1.3916 0.180625,-0.39063 0.400375,-0.69824 0.659125,-0.92773 0.278375,-0.24415 0.57625,-0.41504 0.903375,-0.5127 0.327125,-0.1123 0.6445,-0.1709 0.952125,-0.1709 0.327125,0 0.6445,0.0586 0.952125,0.1709 0.307625,0.0977 0.57625,0.26855 0.80575,0.5127 0.244125,0.24414 0.429625,0.57128 0.5615,0.97656 0.1465,0.39062 0.21975,0.8789 0.21975,1.46484 l 0,0.31738 -3.955125,0 c 0.015,0.52247 0.170875,0.90332 0.463875,1.14747 0.293,0.24414 0.649375,0.36621 1.07425,0.36621 0.376,0 0.683625,-0.0537 0.92775,-0.1709 0.25875,-0.12696 0.498,-0.29785 0.708,-0.5127 l 0.708,0.70801 c -0.307625,0.3418 -0.669,0.60547 -1.07425,0.78125 -0.390625,0.17578 -0.84475,0.26856 -1.367125,0.26856 z m 1.293875,-3.58887 c -0.0825,-0.90821 -0.527375,-1.36719 -1.34275,-1.36719 -0.1465,0 -0.30275,0.0244 -0.463875,0.0732 -0.1465,0.0488 -0.28325,0.13184 -0.415,0.24414 -0.131875,0.11719 -0.234375,0.26367 -0.317375,0.43945 -0.0825,0.16602 -0.1465,0.36621 -0.195375,0.61035 l 2.734375,0 z m 0,0"
       id="path139" />
    <path
       inkscape:connector-curvature="0"
       style="fill:#211e1e;fill-opacity:1;fill-rule:nonzero;stroke:none"
       d="m 88.037732,270.74051 1.367125,0 0,8.10546 -1.367125,0 0,-8.10546 z m 0,0"
       id="path141" />
    <path
       inkscape:connector-curvature="0"
       style="fill:#211e1e;fill-opacity:1;fill-rule:nonzero;stroke:none"
       d="m 93.208607,278.91922 c -0.376,0 -0.67875,-0.0391 -0.903375,-0.0977 -0.2295,-0.0635 -0.410125,-0.16114 -0.537125,-0.29297 -0.13175,-0.14649 -0.219625,-0.31739 -0.2685,-0.5127 -0.04875,-0.19531 -0.07375,-0.41992 -0.07375,-0.68359 l 0,-3.22266 -1.001,0 0,-1.07422 1.001,0 0,-2.02636 1.34275,0 0,2.02636 1.48925,0 0,1.07422 -1.48925,0 0,2.88086 c 0,0.3125 0.05375,0.53711 0.170875,0.68359 0.1125,0.13184 0.341875,0.19532 0.683625,0.19532 0.0975,0 0.195375,-0.005 0.293,-0.0244 0.1125,-0.0146 0.21,-0.0293 0.293,-0.0488 l 0,1.0498 c -0.04875,0 -0.1175,0.005 -0.195375,0.0244 -0.06875,0.01 -0.1465,0.0244 -0.244125,0.0244 -0.0825,0.01 -0.170875,0.0244 -0.2685,0.0244 -0.0975,0 -0.195375,0 -0.293,0 z m 0,0"
       id="path143" />
    <path
       inkscape:connector-curvature="0"
       style="fill:#211e1e;fill-opacity:1;fill-rule:nonzero;stroke:none"
       d="m 99.727107,278.94363 c -0.522375,0 -0.9375,-0.14648 -1.245125,-0.43945 -0.292875,-0.29297 -0.439375,-0.72266 -0.439375,-1.29395 l 0,-4.1748 1.367125,0 0,3.85742 c 0,0.62012 0.28325,0.92773 0.854498,0.92773 0.30763,0 0.586,-0.0635 0.83013,-0.19531 0.24412,-0.14648 0.49312,-0.33203 0.75675,-0.56152 l 0,-4.02832 1.34287,0 0,5.81054 -1.34287,0 0,-0.78125 c -0.0975,0.0977 -0.21963,0.20508 -0.36613,0.31739 -0.13187,0.0976 -0.28812,0.19043 -0.46387,0.26855 -0.166,0.083 -0.36138,0.14649 -0.586,0.19531 -0.21475,0.0586 -0.449128,0.0977 -0.708003,0.0977 z m 0,0"
       id="path147" />
    <path
       inkscape:connector-curvature="0"
       style="fill:#211e1e;fill-opacity:1;fill-rule:nonzero;stroke:none"
       d="m 104.71248,273.03543 1.34275,0 0,0.78125 c 0.0975,-0.0977 0.20513,-0.19531 0.34188,-0.29297 0.14637,-0.1123 0.29775,-0.20996 0.46387,-0.29297 0.17575,-0.0977 0.371,-0.1709 0.58588,-0.21973 0.22462,-0.0488 0.46875,-0.0732 0.73237,-0.0732 0.51763,0 0.92775,0.14649 1.22075,0.43945 0.30275,0.29297 0.46388,0.72754 0.46388,1.29395 l 0,4.1748 -1.36725,0 0,-3.833 c 0,-0.61524 -0.288,-0.92774 -0.85438,-0.92774 -0.293,0 -0.57625,0.0732 -0.83012,0.21973 -0.24413,0.13184 -0.503,0.3125 -0.75688,0.53711 l 0,4.0039 -1.34275,0 0,-5.81054 z m 0,0"
       id="path149" />
    <path
       inkscape:connector-curvature="0"
       style="fill:#211e1e;fill-opacity:1;fill-rule:nonzero;stroke:none"
       d="m 113.28186,278.94363 c -0.32713,0 -0.63475,-0.0635 -0.92775,-0.1709 -0.27838,-0.12695 -0.5225,-0.31738 -0.7325,-0.56152 -0.19525,-0.25879 -0.3515,-0.56641 -0.46375,-0.92774 -0.1125,-0.37109 -0.171,-0.81054 -0.171,-1.31835 0,-0.50293 0.0588,-0.94239 0.171,-1.31836 0.13175,-0.39063 0.30262,-0.70801 0.51262,-0.95215 0.21,-0.25879 0.47363,-0.44434 0.78125,-0.56153 0.30763,-0.12695 0.64938,-0.19531 1.02538,-0.19531 0.30762,0 0.61037,0.0684 0.90337,0.19531 0.293,0.11719 0.54688,0.29297 0.75675,0.53711 l 0,-2.92968 1.34288,0 0,6.68945 c 0,0.3418 0.0125,0.62988 0.025,0.85449 0.0337,0.22949 0.0825,0.41504 0.1465,0.56152 l -1.39163,0 c -0.0337,-0.0781 -0.0637,-0.19531 -0.0975,-0.34179 -0.015,-0.14649 -0.025,-0.29297 -0.025,-0.43946 -0.20987,0.24415 -0.46375,0.45899 -0.75675,0.63477 -0.293,0.15625 -0.65925,0.24414 -1.09862,0.24414 z m 0.43937,-1.12305 c 0.27838,0 0.53713,-0.0732 0.78125,-0.21972 0.25888,-0.14649 0.47363,-0.31739 0.63475,-0.5127 l 0,-2.31933 c -0.18062,-0.22461 -0.40037,-0.40528 -0.65912,-0.53711 -0.24413,-0.12696 -0.4785,-0.19532 -0.708,-0.19532 -0.5225,0 -0.8935,0.16602 -1.123,0.48829 -0.21,0.32714 -0.31738,0.81543 -0.31738,1.46484 0,0.62012 0.1225,1.08398 0.36613,1.3916 0.24412,0.29297 0.586,0.43945 1.02537,0.43945 z m 0,0"
       id="path151" />
    <path
       inkscape:connector-curvature="0"
       style="fill:#211e1e;fill-opacity:1;fill-rule:nonzero;stroke:none"
       d="m 119.92248,270.74051 1.39163,0 2.0995,6.32324 0.025,0 2.09962,-6.32324 1.29388,0 -2.80763,8.12988 -1.29387,0 -2.80763,-8.12988 z m 0,0"
       id="path155" />
    <path
       inkscape:connector-curvature="0"
       style="fill:#211e1e;fill-opacity:1;fill-rule:nonzero;stroke:none"
       d="m 129.35111,278.96805 c -0.35638,0 -0.708,-0.0635 -1.04975,-0.1709 -0.32713,-0.1123 -0.62013,-0.29297 -0.87888,-0.53711 -0.25887,-0.24414 -0.47362,-0.55176 -0.63475,-0.92774 -0.16112,-0.39062 -0.24425,-0.85449 -0.24425,-1.3916 0,-0.55176 0.0875,-1.01562 0.26863,-1.3916 0.18062,-0.39063 0.40037,-0.69824 0.65912,-0.92773 0.27838,-0.24415 0.57625,-0.41504 0.90338,-0.5127 0.32712,-0.1123 0.6445,-0.1709 0.95212,-0.1709 0.32713,0 0.6445,0.0586 0.95213,0.1709 0.30762,0.0977 0.57625,0.26855 0.80575,0.5127 0.24412,0.24414 0.42962,0.57128 0.5615,0.97656 0.1465,0.39062 0.21975,0.8789 0.21975,1.46484 l 0,0.31738 -3.95513,0 c 0.015,0.52247 0.17088,0.90332 0.46388,1.14747 0.293,0.24414 0.64937,0.36621 1.07425,0.36621 0.37587,0 0.6835,-0.0537 0.92775,-0.1709 0.25875,-0.12696 0.498,-0.29785 0.708,-0.5127 l 0.708,0.70801 c -0.30763,0.3418 -0.669,0.60547 -1.07425,0.78125 -0.39063,0.17578 -0.84475,0.26856 -1.36725,0.26856 z m 1.294,-3.58887 c -0.0825,-0.90821 -0.52738,-1.36719 -1.34275,-1.36719 -0.1465,0 -0.30275,0.0244 -0.46388,0.0732 -0.1465,0.0488 -0.28325,0.13184 -0.415,0.24414 -0.13187,0.11719 -0.23437,0.26367 -0.3175,0.43945 -0.0825,0.16602 -0.14637,0.36621 -0.19525,0.61036 l 2.73438,0 z m 0,0"
       id="path157" />
    <path
       inkscape:connector-curvature="0"
       style="fill:#211e1e;fill-opacity:1;fill-rule:nonzero;stroke:none"
       d="m 133.05723,273.03543 1.34275,0 0,0.95215 0.025,0 c 0.17588,-0.29297 0.42488,-0.53711 0.75688,-0.73243 0.32225,-0.20996 0.76175,-0.31738 1.31837,-0.31738 l 0.0975,0 -0.0488,1.2207 c -0.0387,0 -0.0925,0 -0.171,0 -0.0875,-0.0146 -0.1465,-0.0244 -0.19525,-0.0244 -0.42975,0 -0.78125,0.0977 -1.07425,0.29297 -0.28325,0.18067 -0.51262,0.42481 -0.708,0.73242 l 0,3.68653 -1.34275,0 0,-5.81055 z m 0,0"
       id="path159" />
    <path
       inkscape:connector-curvature="0"
       style="fill:#211e1e;fill-opacity:1;fill-rule:nonzero;stroke:none"
       d="m 140.56698,278.94363 c -0.3125,0 -0.61037,-0.0684 -0.90337,-0.19531 -0.29288,-0.12695 -0.55175,-0.30762 -0.75675,-0.53711 l 0,0.63476 -1.34275,0 0,-8.10546 1.34275,0 0,3.05175 c 0.19525,-0.22461 0.43937,-0.41992 0.73237,-0.58593 0.30275,-0.17578 0.68363,-0.26856 1.123,-0.26856 0.32238,0 0.62013,0.0684 0.90338,0.19531 0.2735,0.11719 0.51275,0.30274 0.708,0.56153 0.20512,0.24414 0.37112,0.55664 0.48825,0.92773 0.127,0.37598 0.19537,0.81543 0.19537,1.31836 0,0.50781 -0.0687,0.94727 -0.19537,1.31836 -0.1175,0.37598 -0.28313,0.68359 -0.48825,0.92774 -0.21488,0.24414 -0.4785,0.43457 -0.78125,0.56152 -0.3125,0.12695 -0.65425,0.19531 -1.02538,0.19531 z m -0.293,-1.07422 c 0.49813,0 0.86425,-0.15136 1.09863,-0.46386 0.22462,-0.32227 0.34187,-0.81055 0.34187,-1.46485 0,-0.61523 -0.1225,-1.0791 -0.36625,-1.3916 -0.24412,-0.30762 -0.586,-0.46387 -1.02537,-0.46387 -0.28325,0 -0.55175,0.0732 -0.80563,0.21973 -0.24425,0.14648 -0.45412,0.31738 -0.61037,0.51269 l 0,2.31934 c 0.17575,0.22949 0.39062,0.41016 0.63475,0.53711 0.24412,0.13184 0.48825,0.19531 0.73237,0.19531 z m 0,0"
       id="path161" />
    <path
       inkscape:connector-curvature="0"
       style="fill:#211e1e;fill-opacity:1;fill-rule:nonzero;stroke:none"
       d="m 144.24373,273.03543 1.34275,0 0,0.95215 0.025,0 c 0.17575,-0.29297 0.42963,-0.53711 0.75675,-0.73243 0.32225,-0.20996 0.76175,-0.31738 1.31838,-0.31738 l 0.0975,0 -0.0488,1.2207 c -0.0337,0 -0.0925,0 -0.17088,0 -0.0837,-0.0146 -0.1465,-0.0244 -0.19537,-0.0244 -0.42475,0 -0.78125,0.0977 -1.07425,0.29297 -0.27825,0.18067 -0.51263,0.42481 -0.708,0.73242 l 0,3.68653 -1.34275,0 0,-5.81055 z m 0,0"
       id="path163" />
    <path
       inkscape:connector-curvature="0"
       style="fill:#211e1e;fill-opacity:1;fill-rule:nonzero;stroke:none"
       d="m 149.83461,278.94363 c -0.2295,0 -0.44925,-0.0391 -0.65925,-0.0977 -0.19525,-0.0635 -0.36625,-0.16113 -0.51263,-0.29297 -0.1465,-0.12695 -0.26375,-0.2832 -0.34187,-0.46387 -0.0825,-0.19531 -0.1225,-0.40527 -0.1225,-0.63476 0,-0.32227 0.0637,-0.61524 0.19525,-0.87891 0.1465,-0.25879 0.36625,-0.48828 0.65925,-0.68359 0.30762,-0.20996 0.69825,-0.38086 1.17187,-0.5127 0.48825,-0.14648 1.07413,-0.25879 1.75775,-0.34179 l 0,-0.1709 c 0,-0.29297 -0.0825,-0.50293 -0.24412,-0.63477 -0.1465,-0.12695 -0.38575,-0.19531 -0.708,-0.19531 -0.41013,0 -0.77638,0.083 -1.09863,0.24414 -0.32712,0.16602 -0.61037,0.3418 -0.8545,0.53711 l -0.65925,-0.83008 c 0.30763,-0.29297 0.69825,-0.53711 1.17188,-0.73242 0.46875,-0.20996 1.00587,-0.31738 1.61137,-0.31738 0.39063,0 0.71288,0.0488 0.97663,0.14648 0.27337,0.083 0.49312,0.21484 0.65912,0.39062 0.16113,0.18067 0.2735,0.4004 0.34175,0.65918 0.0775,0.26368 0.1225,0.56153 0.1225,0.90332 l 0,2.39258 c 0,0.3418 0,0.62989 0.0238,0.85449 0.03,0.2295 0.0775,0.41504 0.1465,0.56153 l -1.36712,0 c -0.0337,-0.12695 -0.0687,-0.24414 -0.0975,-0.3418 -0.02,-0.0977 -0.025,-0.22461 -0.025,-0.39062 -0.3125,0.29297 -0.63475,0.50781 -0.9765,0.63476 -0.34188,0.12696 -0.7325,0.19531 -1.17188,0.19531 z m 0.48825,-1.0498 c 0.35637,0 0.664,-0.0537 0.92775,-0.1709 0.27337,-0.12696 0.5175,-0.29297 0.73237,-0.48828 l 0,-1.29395 c -0.81537,0.11719 -1.4355,0.27832 -1.8555,0.48828 -0.41012,0.19532 -0.61025,0.44922 -0.61025,0.75684 0,0.24414 0.0725,0.4248 0.21963,0.53711 0.1465,0.11719 0.34187,0.1709 0.586,0.1709 z m 0,0"
       id="path165" />
    <path
       inkscape:connector-curvature="0"
       style="fill:#211e1e;fill-opacity:1;fill-rule:nonzero;stroke:none"
       d="m 156.35798,278.94363 c -0.52738,0 -0.94237,-0.14648 -1.24512,-0.43945 -0.293,-0.29297 -0.43938,-0.72266 -0.43938,-1.29395 l 0,-4.1748 1.36712,0 0,3.85742 c 0,0.62012 0.27838,0.92773 0.8545,0.92773 0.30275,0 0.58588,-0.0635 0.83013,-0.19531 0.24412,-0.14648 0.49312,-0.33203 0.75675,-0.56152 l 0,-4.02832 1.34275,0 0,5.81054 -1.34275,0 0,-0.78125 c -0.0975,0.0977 -0.21975,0.20508 -0.36613,0.31739 -0.13675,0.0976 -0.28812,0.19043 -0.46387,0.26855 -0.166,0.083 -0.36138,0.14649 -0.586,0.19531 -0.21488,0.0586 -0.45413,0.0977 -0.708,0.0977 z m 0,0"
       id="path167" />
    <path
       inkscape:connector-curvature="0"
       style="fill:#211e1e;fill-opacity:1;fill-rule:nonzero;stroke:none"
       d="m 163.73098,278.96805 c -0.34175,0 -0.67375,-0.0635 -1.00088,-0.1709 -0.32725,-0.1123 -0.62012,-0.29297 -0.87899,-0.53711 -0.24413,-0.24414 -0.44913,-0.55176 -0.61025,-0.92774 -0.16113,-0.39062 -0.24426,-0.85449 -0.24426,-1.3916 0,-0.55176 0.0875,-1.01562 0.26863,-1.3916 0.18063,-0.39063 0.40038,-0.69824 0.65912,-0.92773 0.25888,-0.24415 0.55175,-0.41504 0.879,-0.5127 0.34175,-0.1123 0.67375,-0.1709 1.00088,-0.1709 0.3565,0 0.669,0.0488 0.92775,0.14649 0.25887,0.083 0.4785,0.20507 0.65925,0.36621 0.19525,0.14648 0.35637,0.32715 0.48825,0.53711 0.13187,0.19531 0.23437,0.41015 0.31737,0.63476 l -1.123,0.41504 c -0.2295,-0.64941 -0.65925,-0.97656 -1.294,-0.97656 -0.19525,0 -0.38087,0.0342 -0.5615,0.0977 -0.16112,0.0684 -0.30762,0.1709 -0.4395,0.31738 -0.13175,0.14648 -0.23437,0.3418 -0.31737,0.58594 -0.0637,0.24414 -0.0975,0.53711 -0.0975,0.8789 0,0.62012 0.1225,1.09864 0.36625,1.44043 0.24412,0.32715 0.58587,0.48828 1.02537,0.48828 0.30763,0 0.57125,-0.0635 0.78125,-0.19531 0.2295,-0.12695 0.415,-0.40527 0.5615,-0.83008 l 1.123,0.41504 c -0.0975,0.2295 -0.21962,0.44922 -0.36612,0.65918 -0.1465,0.21485 -0.31738,0.40039 -0.51275,0.56153 -0.19525,0.14648 -0.42963,0.26855 -0.708,0.36621 -0.25875,0.0781 -0.5615,0.12207 -0.90338,0.12207 z m 0,0"
       id="path169" />
    <path
       inkscape:connector-curvature="0"
       style="fill:#211e1e;fill-opacity:1;fill-rule:nonzero;stroke:none"
       d="m 167.30036,270.74051 1.34275,0 0,3.07617 c 0.0975,-0.0977 0.21,-0.19531 0.34187,-0.29297 0.1465,-0.1123 0.29788,-0.20996 0.46388,-0.29297 0.17575,-0.0977 0.371,-0.1709 0.58587,-0.21973 0.22463,-0.0488 0.46875,-0.0732 0.7325,-0.0732 0.5175,0 0.92763,0.14649 1.22063,0.43945 0.30762,0.29297 0.46387,0.72754 0.46387,1.29395 l 0,4.1748 -1.36712,0 0,-3.833 c 0,-0.61524 -0.28813,-0.92774 -0.8545,-0.92774 -0.293,0 -0.57138,0.0732 -0.83013,0.21973 -0.24412,0.13184 -0.498,0.3125 -0.75687,0.53711 l 0,4.0039 -1.34275,0 0,-8.10546 z m 0,0"
       id="path171" />
    <path
       inkscape:connector-curvature="0"
       style="fill:#211e1e;fill-opacity:1;fill-rule:nonzero;stroke:none"
       d="m 176.36286,278.96805 c -0.36125,0 -0.708,-0.0635 -1.04975,-0.1709 -0.33213,-0.1123 -0.625,-0.29297 -0.879,-0.53711 -0.26363,-0.24414 -0.4785,-0.55176 -0.63475,-0.92774 -0.166,-0.39062 -0.24413,-0.85449 -0.24413,-1.3916 0,-0.55176 0.0825,-1.01562 0.26862,-1.3916 0.17575,-0.39063 0.3955,-0.69824 0.65913,-0.92773 0.2735,-0.24415 0.57125,-0.41504 0.90337,-0.5127 0.32226,-0.1123 0.63963,-0.1709 0.95213,-0.1709 0.32225,0 0.63963,0.0586 0.95213,0.1709 0.30274,0.0977 0.57125,0.26855 0.80562,0.5127 0.24413,0.24414 0.42488,0.57128 0.56163,0.97656 0.14637,0.39062 0.21962,0.8789 0.21962,1.46484 l 0,0.31738 -3.955,0 c 0.0125,0.52247 0.17088,0.90332 0.46388,1.14747 0.29287,0.24414 0.6445,0.36621 1.07412,0.36621 0.37113,0 0.68363,-0.0537 0.92775,-0.1709 0.254,-0.12696 0.49325,-0.29785 0.708,-0.5127 l 0.708,0.70801 c -0.3125,0.3418 -0.67375,0.60547 -1.07413,0.78125 -0.39062,0.17578 -0.84962,0.26856 -1.36725,0.26856 z m 1.294,-3.58887 c -0.0875,-0.90821 -0.53225,-1.36719 -1.34275,-1.36719 -0.1465,0 -0.30763,0.0244 -0.46388,0.0732 -0.1465,0.0488 -0.28812,0.13184 -0.41513,0.24414 -0.13662,0.11719 -0.23924,0.26367 -0.31737,0.43945 -0.0875,0.16602 -0.1465,0.36621 -0.19525,0.61036 l 2.73438,0 z m 0,0"
       id="path173" />
    <path
       inkscape:connector-curvature="0"
       style="fill:#211e1e;fill-opacity:1;fill-rule:nonzero;stroke:none"
       d="m 180.06411,273.03543 1.34275,0 0,0.95215 0.025,0 c 0.17575,-0.29297 0.42975,-0.53711 0.75687,-0.73243 0.32225,-0.20996 0.76163,-0.31738 1.31837,-0.31738 l 0.0975,0 -0.0488,1.2207 c -0.0337,0 -0.0925,0 -0.17087,0 -0.0825,-0.0146 -0.1465,-0.0244 -0.19525,-0.0244 -0.42487,0 -0.78125,0.0977 -1.07425,0.29297 -0.27838,0.18067 -0.51275,0.42481 -0.708,0.73242 l 0,3.68653 -1.34275,0 0,-5.81055 z m 0,0"
       id="path175" />
    <path
       inkscape:connector-curvature="0"
       style="fill:#211e1e;fill-opacity:1;fill-rule:nonzero;stroke:none"
       d="m 186.53373,278.96805 c -0.53712,0 -1.04,-0.0879 -1.48925,-0.24415 -0.459,-0.17578 -0.82025,-0.40527 -1.07412,-0.68359 l 0.73237,-0.80566 c 0.20513,0.18066 0.46875,0.34179 0.78125,0.48828 0.32225,0.13183 0.66888,0.19531 1.04975,0.19531 0.35163,0 0.63475,-0.0488 0.83013,-0.14648 0.20512,-0.1123 0.31737,-0.28321 0.31737,-0.5127 0,-0.12695 -0.0387,-0.22461 -0.0975,-0.29297 -0.0687,-0.0781 -0.166,-0.15137 -0.293,-0.21972 -0.1175,-0.0635 -0.25875,-0.1123 -0.415,-0.14649 -0.1465,-0.0488 -0.3125,-0.0879 -0.48838,-0.12207 -0.24412,-0.0635 -0.50287,-0.12696 -0.75674,-0.19532 -0.26375,-0.0781 -0.503,-0.18554 -0.708,-0.31738 -0.21488,-0.12695 -0.38575,-0.29785 -0.51275,-0.51269 -0.13675,-0.20997 -0.19525,-0.47852 -0.19525,-0.80567 0,-0.25879 0.0488,-0.49316 0.1465,-0.70801 0.1075,-0.20996 0.25387,-0.39062 0.43937,-0.53711 0.19538,-0.14648 0.42,-0.25879 0.68363,-0.34179 0.25387,-0.0781 0.54687,-0.12208 0.87887,-0.12208 0.54688,0 1.00587,0.0732 1.36725,0.21973 0.371,0.14648 0.71288,0.3418 1.02538,0.58594 l -0.65925,0.8789 c -0.0975,-0.0781 -0.21963,-0.16113 -0.36613,-0.24414 -0.13675,-0.0781 -0.26862,-0.14648 -0.41512,-0.19531 -0.1465,-0.0635 -0.29288,-0.1123 -0.43938,-0.14649 -0.1465,-0.0293 -0.28812,-0.0488 -0.41512,-0.0488 -0.38075,0 -0.63475,0.0586 -0.78125,0.1709 -0.13663,0.11719 -0.19525,0.25391 -0.19525,0.41504 0,0.11719 0.0288,0.21485 0.0975,0.29297 0.0587,0.083 0.15137,0.15625 0.26862,0.21973 0.1075,0.0488 0.24413,0.0977 0.39063,0.14648 0.15625,0.0342 0.32712,0.0732 0.51262,0.12208 0.24413,0.0488 0.49313,0.11718 0.75688,0.19531 0.25387,0.0684 0.49312,0.16602 0.708,0.29297 0.20512,0.11719 0.376,0.27832 0.51262,0.48828 0.1465,0.21484 0.21975,0.48828 0.21975,0.83008 0,0.3125 -0.0687,0.58105 -0.19525,0.80566 -0.1175,0.22949 -0.28812,0.41504 -0.51275,0.56153 -0.23437,0.14648 -0.48825,0.2539 -0.78125,0.31738 -0.293,0.0781 -0.6055,0.12207 -0.92775,0.12207 z m 0,0"
       id="path177" />
    <path
       inkscape:connector-curvature="0"
       style="fill:#211e1e;fill-opacity:1;fill-rule:nonzero;stroke:none"
       d="m 192.44198,278.96805 c -0.34175,0 -0.67387,-0.0635 -1.001,-0.1709 -0.32712,-0.1123 -0.62012,-0.29297 -0.87887,-0.53711 -0.24413,-0.24414 -0.44925,-0.55176 -0.61038,-0.92774 -0.16112,-0.39062 -0.24412,-0.85449 -0.24412,-1.3916 0,-0.55176 0.0875,-1.01562 0.2685,-1.3916 0.18075,-0.39063 0.4005,-0.69824 0.65924,-0.92773 0.25876,-0.24415 0.55175,-0.41504 0.87888,-0.5127 0.34175,-0.1123 0.67387,-0.1709 1.001,-0.1709 0.35637,0 0.66887,0.0488 0.92775,0.14649 0.25875,0.083 0.4785,0.20507 0.65912,0.36621 0.19538,0.14648 0.3565,0.32715 0.48825,0.53711 0.13188,0.19531 0.23438,0.41015 0.3175,0.63476 l -1.12312,0.41504 c -0.2295,-0.64941 -0.65913,-0.97656 -1.29388,-0.97656 -0.19537,0 -0.38087,0.0342 -0.56162,0.0977 -0.16113,0.0684 -0.30763,0.1709 -0.43938,0.31738 -0.13187,0.14648 -0.23437,0.3418 -0.31737,0.58594 -0.0637,0.24414 -0.0975,0.53711 -0.0975,0.8789 0,0.62012 0.1225,1.09864 0.36625,1.44043 0.24412,0.32715 0.586,0.48828 1.02537,0.48828 0.30763,0 0.57138,-0.0635 0.78125,-0.19531 0.2295,-0.12695 0.41513,-0.40527 0.5615,-0.83008 l 1.12313,0.41504 c -0.0975,0.2295 -0.21975,0.44922 -0.36625,0.65918 -0.1465,0.21485 -0.31738,0.40039 -0.51263,0.56153 -0.19537,0.14648 -0.42975,0.26855 -0.708,0.36621 -0.25887,0.0781 -0.56162,0.12207 -0.90337,0.12207 z m 0,0"
       id="path179" />
    <path
       inkscape:connector-curvature="0"
       style="fill:#211e1e;fill-opacity:1;fill-rule:nonzero;stroke:none"
       d="m 196.01135,270.74051 1.34275,0 0,3.07617 c 0.0975,-0.0977 0.21,-0.19531 0.34176,-0.29297 0.14649,-0.1123 0.29787,-0.20996 0.46387,-0.29297 0.17575,-0.0977 0.37113,-0.1709 0.586,-0.21973 0.22463,-0.0488 0.46875,-0.0732 0.73238,-0.0732 0.51762,0 0.92775,0.14649 1.22075,0.43945 0.30762,0.29297 0.46387,0.72754 0.46387,1.29395 l 0,4.1748 -1.36725,0 0,-3.833 c 0,-0.61524 -0.28812,-0.92774 -0.8545,-0.92774 -0.293,0 -0.57125,0.0732 -0.83,0.21973 -0.24425,0.13184 -0.49812,0.3125 -0.75687,0.53711 l 0,4.0039 -1.34275,0 0,-8.10546 z m 0,0"
       id="path181" />
    <path
       inkscape:connector-curvature="0"
       style="fill:#211e1e;fill-opacity:1;fill-rule:nonzero;stroke:none"
       d="m 204.21935,278.94363 c -0.52737,0 -0.94237,-0.14648 -1.24512,-0.43945 -0.293,-0.29297 -0.4395,-0.72266 -0.4395,-1.29395 l 0,-4.1748 1.36725,0 0,3.85742 c 0,0.62012 0.27825,0.92773 0.8545,0.92773 0.30262,0 0.58587,-0.0635 0.83,-0.19531 0.24413,-0.14648 0.49325,-0.33203 0.75687,-0.56152 l 0,-4.02832 1.34275,0 0,5.81054 -1.34275,0 0,-0.78125 c -0.0975,0.0977 -0.21975,0.20508 -0.36624,0.31739 -0.13676,0.0976 -0.288,0.19043 -0.46388,0.26855 -0.166,0.083 -0.36125,0.14649 -0.58587,0.19531 -0.21488,0.0586 -0.45413,0.0977 -0.708,0.0977 z m 0,0"
       id="path183" />
    <path
       inkscape:connector-curvature="0"
       style="fill:#211e1e;fill-opacity:1;fill-rule:nonzero;stroke:none"
       d="m 211.45073,278.91922 c -0.38087,0 -0.67862,-0.0391 -0.90325,-0.0977 -0.23438,-0.0635 -0.41025,-0.16114 -0.53713,-0.29297 -0.13675,-0.14649 -0.21975,-0.31739 -0.26862,-0.5127 -0.0487,-0.19531 -0.0737,-0.41992 -0.0737,-0.68359 l 0,-3.22266 -1.00087,0 0,-1.07422 1.00087,0 0,-2.02636 1.34288,0 0,2.02636 1.48924,0 0,1.07422 -1.48924,0 0,2.88086 c 0,0.3125 0.0537,0.53711 0.17087,0.68359 0.1075,0.13184 0.34175,0.19532 0.68363,0.19532 0.0975,0 0.19525,-0.005 0.29287,-0.0244 0.1075,-0.0146 0.20513,-0.0293 0.293,-0.0488 l 0,1.0498 c -0.0488,0 -0.1175,0.005 -0.19525,0.0244 -0.0687,0.01 -0.1465,0.0244 -0.24425,0.0244 -0.0875,0.01 -0.17087,0.0244 -0.2685,0.0244 -0.0975,0 -0.19525,0 -0.293,0 z m 0,0"
       id="path185" />
    <path
       inkscape:connector-curvature="0"
       style="fill:#211e1e;fill-opacity:1;fill-rule:nonzero;stroke:none"
       d="m 213.21835,278.06472 3.10063,-3.95507 -2.8565,0 0,-1.07422 4.541,0 0,0.80566 -3.10063,3.95508 3.296,0 0,1.0498 -4.9805,0 0,-0.78125 z m 0,0"
       id="path187" />
    <path
       inkscape:connector-curvature="0"
       style="fill:#211e1e;fill-opacity:1;fill-rule:nonzero;stroke:none"
       d="m 55.928357,283.86551 1.3915,0 3.808625,5.78613 0.02375,0 0,-5.78613 1.269625,0 0,8.10546 -1.245125,0 -3.9795,-5.88378 0,0 0,5.88378 -1.2695,0 0,-8.10546 z m 0,0"
       id="path189" />
    <path
       inkscape:connector-curvature="0"
       style="fill:#211e1e;fill-opacity:1;fill-rule:nonzero;stroke:none"
       d="m 66.616732,292.09305 c -0.356375,0 -0.708,-0.0635 -1.04975,-0.1709 -0.34175,-0.1123 -0.6445,-0.29297 -0.903375,-0.53711 -0.25875,-0.24414 -0.4785,-0.55176 -0.659125,-0.92774 -0.161125,-0.39062 -0.244125,-0.85449 -0.244125,-1.3916 0,-0.53711 0.0825,-0.99121 0.244125,-1.36719 0.161125,-0.37109 0.376,-0.68359 0.63475,-0.92773 0.278375,-0.24414 0.586,-0.41992 0.92775,-0.53711 0.34175,-0.1123 0.693375,-0.1709 1.04975,-0.1709 0.341875,0 0.683625,0.0586 1.0255,0.1709 0.34175,0.11719 0.6445,0.29297 0.90325,0.53711 0.25875,0.24414 0.473625,0.55664 0.63475,0.92773 0.18075,0.37598 0.268625,0.83008 0.268625,1.36719 0,0.53711 -0.0875,1.00098 -0.268625,1.3916 -0.161125,0.37598 -0.376,0.6836 -0.63475,0.92774 -0.25875,0.24414 -0.5615,0.4248 -0.90325,0.53711 -0.341875,0.10742 -0.683625,0.1709 -1.0255,0.1709 z m 0,-1.12305 c 0.488375,0 0.8545,-0.16113 1.098625,-0.48828 0.24425,-0.3418 0.36625,-0.81055 0.36625,-1.41602 0,-0.25879 -0.03375,-0.50293 -0.0975,-0.73242 -0.04875,-0.24414 -0.13675,-0.44434 -0.268625,-0.61035 -0.1125,-0.16113 -0.2685,-0.28321 -0.46375,-0.36621 -0.18075,-0.0977 -0.390625,-0.14649 -0.634875,-0.14649 -0.502875,0 -0.878875,0.16602 -1.123,0.48828 -0.244125,0.32715 -0.36625,0.78125 -0.36625,1.36719 0,0.55664 0.1125,1.01074 0.341875,1.36719 0.244125,0.36133 0.625,0.53711 1.147375,0.53711 z m 0,0"
       id="path191" />
    <path
       inkscape:connector-curvature="0"
       style="fill:#211e1e;fill-opacity:1;fill-rule:nonzero;stroke:none"
       d="m 70.620732,286.16043 1.34275,0 0,0.95215 0.025,0 c 0.180625,-0.29297 0.42975,-0.53711 0.756875,-0.73243 0.327125,-0.20996 0.766625,-0.31738 1.318375,-0.31738 l 0.0975,0 -0.04875,1.2207 c -0.03375,0 -0.0875,0 -0.170875,0 -0.0825,-0.0146 -0.1465,-0.0244 -0.19525,-0.0244 -0.424875,0 -0.78125,0.0977 -1.07425,0.29297 -0.278375,0.18067 -0.51275,0.42481 -0.708,0.73242 l 0,3.68653 -1.34275,0 0,-5.81055 z m 0,0"
       id="path193" />
    <path
       inkscape:connector-curvature="0"
       style="fill:#211e1e;fill-opacity:1;fill-rule:nonzero;stroke:none"
       d="m 76.831607,292.06863 c -0.327125,0 -0.63475,-0.0635 -0.92775,-0.1709 -0.27825,-0.12695 -0.522375,-0.31738 -0.732375,-0.56152 -0.195375,-0.25879 -0.351625,-0.56641 -0.463875,-0.92774 -0.1175,-0.37109 -0.170875,-0.81054 -0.170875,-1.31835 0,-0.50293 0.05375,-0.94239 0.170875,-1.31836 0.127,-0.39063 0.297875,-0.70801 0.51275,-0.95215 0.209875,-0.25879 0.46875,-0.44434 0.78125,-0.56153 0.3075,-0.12695 0.649375,-0.19531 1.025375,-0.19531 0.307625,0 0.61025,0.0684 0.90325,0.19531 0.293,0.11719 0.542,0.29297 0.756875,0.53711 l 0,-2.92968 1.34275,0 0,6.68945 c 0,0.3418 0,0.62988 0.025,0.85449 0.03,0.22949 0.0775,0.41504 0.1465,0.56152 l -1.391625,0 c -0.03375,-0.0781 -0.06875,-0.19531 -0.0975,-0.34179 -0.02,-0.14649 -0.025,-0.29297 -0.025,-0.43946 -0.214875,0.24415 -0.463875,0.45899 -0.756875,0.63477 -0.293,0.15625 -0.659125,0.24414 -1.098625,0.24414 z m 0.4395,-1.12305 c 0.273375,0 0.537125,-0.0732 0.78125,-0.21972 0.25875,-0.14649 0.46875,-0.31739 0.63475,-0.5127 l 0,-2.31933 c -0.180625,-0.22461 -0.400375,-0.40528 -0.65925,-0.53711 -0.244125,-0.12696 -0.483375,-0.19532 -0.708,-0.19532 -0.522375,0 -0.898375,0.16602 -1.123,0.48829 -0.214875,0.32714 -0.317375,0.81543 -0.317375,1.46484 0,0.62012 0.1225,1.08398 0.36625,1.3916 0.244125,0.29297 0.585875,0.43945 1.025375,0.43945 z m 0,0"
       id="path195" />
    <path
       inkscape:connector-curvature="0"
       style="fill:#211e1e;fill-opacity:1;fill-rule:nonzero;stroke:none"
       d="m 81.538607,286.16043 1.342875,0 0,0.95215 0.02375,0 c 0.17575,-0.29297 0.42475,-0.53711 0.756875,-0.73243 0.32225,-0.20996 0.761625,-0.31738 1.31825,-0.31738 l 0.0975,0 -0.04875,1.2207 c -0.03875,0 -0.0925,0 -0.170875,0 -0.0875,-0.0146 -0.1465,-0.0244 -0.195375,-0.0244 -0.429625,0 -0.78125,0.0977 -1.074125,0.29297 -0.28325,0.18067 -0.51275,0.42481 -0.708,0.73242 l 0,3.68653 -1.342875,0 0,-5.81055 z m 0,0"
       id="path197" />
    <path
       inkscape:connector-curvature="0"
       style="fill:#211e1e;fill-opacity:1;fill-rule:nonzero;stroke:none"
       d="m 86.045482,283.86551 1.34275,0 0,3.07617 c 0.0975,-0.0977 0.205125,-0.19531 0.341875,-0.29297 0.1465,-0.1123 0.29775,-0.20996 0.463875,-0.29297 0.17575,-0.0977 0.371,-0.1709 0.585875,-0.21973 0.224625,-0.0488 0.46875,-0.0732 0.732375,-0.0732 0.517625,0 0.92775,0.14649 1.22075,0.43945 0.30275,0.29297 0.463875,0.72754 0.463875,1.29395 l 0,4.1748 -1.367125,0 0,-3.833 c 0,-0.61524 -0.288125,-0.92774 -0.8545,-0.92774 -0.293,0 -0.57625,0.0732 -0.830125,0.21973 -0.244125,0.13184 -0.502875,0.3125 -0.756875,0.53711 l 0,4.0039 -1.34275,0 0,-8.10546 z m 0,0"
       id="path199" />
    <path
       inkscape:connector-curvature="0"
       style="fill:#211e1e;fill-opacity:1;fill-rule:nonzero;stroke:none"
       d="m 95.103107,292.09305 c -0.3565,0 -0.708,-0.0635 -1.04975,-0.1709 -0.32725,-0.1123 -0.620125,-0.29297 -0.879,-0.53711 -0.25875,-0.24414 -0.473625,-0.55176 -0.63475,-0.92774 -0.161125,-0.39062 -0.244125,-0.85449 -0.244125,-1.3916 0,-0.55176 0.0875,-1.01562 0.268625,-1.3916 0.180625,-0.39063 0.400375,-0.69824 0.659125,-0.92773 0.278375,-0.24415 0.576125,-0.41504 0.903375,-0.5127 0.327125,-0.1123 0.6445,-0.1709 0.952125,-0.1709 0.327125,0 0.6445,0.0586 0.952125,0.1709 0.307625,0.0977 0.576125,0.26855 0.805625,0.5127 0.244125,0.24414 0.42975,0.57128 0.5615,0.97656 0.1465,0.39062 0.21975,0.8789 0.21975,1.46484 l 0,0.31738 -3.955,0 c 0.015,0.52247 0.170875,0.90332 0.463875,1.14747 0.292875,0.24414 0.649375,0.36621 1.074125,0.36621 0.376,0 0.683625,-0.0537 0.92775,-0.1709 0.25875,-0.12696 0.498125,-0.29785 0.708,-0.5127 l 0.708,0.70801 c -0.307625,0.3418 -0.668875,0.60547 -1.074125,0.78125 -0.390625,0.17578 -0.84475,0.26856 -1.36725,0.26856 z m 1.294,-3.58887 c -0.0825,-0.90821 -0.527375,-1.36719 -1.342875,-1.36719 -0.146375,0 -0.302625,0.0244 -0.463875,0.0732 -0.146375,0.0488 -0.283125,0.13184 -0.415,0.24414 -0.131875,0.11719 -0.234375,0.26367 -0.317375,0.43945 -0.0825,0.16602 -0.1465,0.36621 -0.19525,0.61036 l 2.734375,0 z m 0,0"
       id="path201" />
    <path
       inkscape:connector-curvature="0"
       style="fill:#211e1e;fill-opacity:1;fill-rule:nonzero;stroke:none"
       d="m 98.857982,283.98758 1.367248,0 0,1.17187 -1.367248,0 0,-1.17187 z m 0,2.17285 1.367248,0 0,5.81054 -1.367248,0 0,-5.81054 z m 0,0"
       id="path203" />
    <path
       inkscape:connector-curvature="0"
       style="fill:#211e1e;fill-opacity:1;fill-rule:nonzero;stroke:none"
       d="m 101.78286,286.16043 1.34275,0 0,0.78125 c 0.0975,-0.0977 0.20987,-0.19531 0.34175,-0.29297 0.1465,-0.1123 0.29787,-0.20996 0.46387,-0.29297 0.17575,-0.0977 0.37113,-0.1709 0.586,-0.21973 0.2245,-0.0488 0.46875,-0.0732 0.73238,-0.0732 0.51762,0 0.92775,0.14649 1.22075,0.43945 0.3075,0.29297 0.46375,0.72754 0.46375,1.29395 l 0,4.1748 -1.36713,0 0,-3.833 c 0,-0.61524 -0.28812,-0.92774 -0.8545,-0.92774 -0.293,0 -0.57125,0.0732 -0.83012,0.21973 -0.24413,0.13184 -0.498,0.3125 -0.75675,0.53711 l 0,4.0039 -1.34275,0 0,-5.81054 z m 0,0"
       id="path205" />
    <path
       inkscape:connector-curvature="0"
       style="fill:#211e1e;fill-opacity:1;fill-rule:nonzero;stroke:none"
       d="m 108.23298,288.06472 2.6855,0 0,0.95215 -2.6855,0 0,-0.95215 z m 0,0"
       id="path207" />
    <path
       inkscape:connector-curvature="0"
       style="fill:#211e1e;fill-opacity:1;fill-rule:nonzero;stroke:none"
       d="m 111.18711,283.86551 1.36712,0 1.04988,4.19921 c 0.0637,0.32715 0.12687,0.64454 0.19525,0.95215 0.0775,0.29297 0.15137,0.60547 0.21975,0.92774 l 0.0238,0 c 0.0637,-0.30762 0.127,-0.61035 0.19537,-0.90332 0.0637,-0.30762 0.13675,-0.625 0.21975,-0.95215 l 0.9765,-4.22363 1.31838,0 1.001,4.22363 c 0.0288,0.18066 0.0637,0.35156 0.0975,0.51269 0.0487,0.14649 0.0875,0.29297 0.1225,0.43946 0.0288,0.13183 0.0637,0.27832 0.0975,0.43945 0.0288,0.14648 0.0637,0.30273 0.0975,0.46387 l 0.025,0 c 0.0288,-0.17578 0.0637,-0.3418 0.0975,-0.48828 0.0288,-0.14649 0.0637,-0.28321 0.0975,-0.41504 0.0288,-0.14649 0.0637,-0.28321 0.0975,-0.41504 0.0287,-0.14649 0.0637,-0.30762 0.0975,-0.48828 l 1.02537,-4.27246 1.2695,0 -2.124,8.10546 -1.19637,0 -1.46475,-6.20117 -0.025,0 -1.51363,6.20117 -1.22075,0 -2.14837,-8.10546 z m 0,0"
       id="path209" />
    <path
       inkscape:connector-curvature="0"
       style="fill:#211e1e;fill-opacity:1;fill-rule:nonzero;stroke:none"
       d="m 123.64798,292.09305 c -0.35637,0 -0.708,-0.0635 -1.04975,-0.1709 -0.32712,-0.1123 -0.62012,-0.29297 -0.87887,-0.53711 -0.25888,-0.24414 -0.47363,-0.55176 -0.63475,-0.92774 -0.16113,-0.39062 -0.24425,-0.85449 -0.24425,-1.3916 0,-0.55176 0.0875,-1.01562 0.26862,-1.3916 0.18063,-0.39063 0.40038,-0.69824 0.65913,-0.92773 0.27837,-0.24415 0.57625,-0.41504 0.90337,-0.5127 0.32713,-0.1123 0.6445,-0.1709 0.95213,-0.1709 0.32712,0 0.6445,0.0586 0.95212,0.1709 0.30763,0.0977 0.57625,0.26855 0.80575,0.5127 0.24413,0.24414 0.42963,0.57128 0.5615,0.97656 0.1465,0.39062 0.21975,0.8789 0.21975,1.46484 l 0,0.31738 -3.95512,0 c 0.015,0.52247 0.17087,0.90332 0.46387,1.14747 0.293,0.24414 0.64938,0.36621 1.07425,0.36621 0.37588,0 0.6835,-0.0537 0.92775,-0.1709 0.25875,-0.12696 0.498,-0.29785 0.708,-0.5127 l 0.708,0.70801 c -0.30762,0.3418 -0.669,0.60547 -1.07425,0.78125 -0.39062,0.17578 -0.84475,0.26856 -1.36725,0.26856 z m 1.294,-3.58887 c -0.0825,-0.90821 -0.52737,-1.36719 -1.34275,-1.36719 -0.1465,0 -0.30275,0.0244 -0.46387,0.0732 -0.1465,0.0488 -0.28325,0.13184 -0.415,0.24414 -0.13188,0.11719 -0.23438,0.26367 -0.3175,0.43945 -0.0825,0.16602 -0.14638,0.36621 -0.19525,0.61036 l 2.73437,0 z m 0,0"
       id="path211" />
    <path
       inkscape:connector-curvature="0"
       style="fill:#211e1e;fill-opacity:1;fill-rule:nonzero;stroke:none"
       d="m 129.36586,292.09305 c -0.53713,0 -1.03525,-0.0879 -1.48925,-0.24415 -0.45413,-0.17578 -0.8155,-0.40527 -1.07425,-0.68359 l 0.73237,-0.80566 c 0.21,0.18066 0.47363,0.34179 0.78125,0.48828 0.32713,0.13183 0.67388,0.19531 1.04988,0.19531 0.35637,0 0.63475,-0.0488 0.83,-0.14648 0.21,-0.1123 0.31737,-0.28321 0.31737,-0.5127 0,-0.12695 -0.0337,-0.22461 -0.0975,-0.29297 -0.0637,-0.0781 -0.16112,-0.15137 -0.293,-0.21972 -0.1125,-0.0635 -0.25387,-0.1123 -0.415,-0.14649 -0.1465,-0.0488 -0.30762,-0.0879 -0.48825,-0.12207 -0.24412,-0.0635 -0.49812,-0.12696 -0.75687,-0.19532 -0.25875,-0.0781 -0.498,-0.18554 -0.708,-0.31738 -0.21,-0.12695 -0.38088,-0.29785 -0.51275,-0.51269 -0.13175,-0.20997 -0.19525,-0.47852 -0.19525,-0.80567 0,-0.25879 0.0487,-0.49316 0.1465,-0.70801 0.1125,-0.20996 0.25875,-0.39062 0.43937,-0.53711 0.19538,-0.14648 0.42488,-0.25879 0.68363,-0.34179 0.25875,-0.0781 0.55175,-0.12208 0.87887,-0.12208 0.55175,0 1.01075,0.0732 1.36725,0.21973 0.376,0.14648 0.71775,0.3418 1.02538,0.58594 l -0.65913,0.8789 c -0.0975,-0.0781 -0.21975,-0.16113 -0.36625,-0.24414 -0.13187,-0.0781 -0.26862,-0.14648 -0.415,-0.19531 -0.1465,-0.0635 -0.293,-0.1123 -0.4395,-0.14649 -0.1465,-0.0293 -0.28325,-0.0488 -0.415,-0.0488 -0.376,0 -0.63475,0.0586 -0.78125,0.1709 -0.13187,0.11719 -0.19537,0.25391 -0.19537,0.41504 0,0.11719 0.0337,0.21485 0.0975,0.29297 0.0637,0.083 0.15625,0.15625 0.26862,0.21973 0.1125,0.0488 0.24413,0.0977 0.39063,0.14648 0.16112,0.0342 0.332,0.0732 0.51262,0.12208 0.24425,0.0488 0.49813,0.11718 0.75688,0.19531 0.25875,0.0684 0.498,0.16602 0.708,0.29297 0.21,0.11719 0.38087,0.27832 0.51275,0.48828 0.1465,0.21484 0.21975,0.48828 0.21975,0.83008 0,0.3125 -0.0637,0.58105 -0.19538,0.80566 -0.1125,0.22949 -0.28325,0.41504 -0.51275,0.56153 -0.22937,0.14648 -0.48825,0.2539 -0.78125,0.31738 -0.29287,0.0781 -0.6005,0.12207 -0.92762,0.12207 z m 0,0"
       id="path213" />
    <path
       inkscape:connector-curvature="0"
       style="fill:#211e1e;fill-opacity:1;fill-rule:nonzero;stroke:none"
       d="m 135.10311,292.04422 c -0.38088,0 -0.67875,-0.0391 -0.90338,-0.0977 -0.23437,-0.0635 -0.41012,-0.16114 -0.537,-0.29297 -0.13675,-0.14649 -0.21975,-0.31739 -0.26862,-0.5127 -0.0488,-0.19531 -0.0737,-0.41992 -0.0737,-0.68359 l 0,-3.22266 -1.001,0 0,-1.07422 1.001,0 0,-2.02636 1.34275,0 0,2.02636 1.48925,0 0,1.07422 -1.48925,0 0,2.88086 c 0,0.3125 0.0538,0.53711 0.171,0.68359 0.1075,0.13184 0.34175,0.19532 0.6835,0.19532 0.0975,0 0.19537,-0.005 0.293,-0.0244 0.1075,-0.0146 0.20512,-0.0293 0.293,-0.0488 l 0,1.0498 c -0.0487,0 -0.1175,0.005 -0.19538,0.0244 -0.0687,0.01 -0.1465,0.0244 -0.24412,0.0244 -0.0875,0.01 -0.17088,0.0244 -0.2685,0.0244 -0.0975,0 -0.19538,0 -0.293,0 z m 0,0"
       id="path215" />
    <path
       inkscape:connector-curvature="0"
       style="fill:#211e1e;fill-opacity:1;fill-rule:nonzero;stroke:none"
       d="m 137.77398,287.23465 -1.02537,0 0,-1.07422 1.02537,0 0,-0.58594 c 0,-0.24414 0.025,-0.46875 0.0737,-0.68359 0.0637,-0.20996 0.16113,-0.39063 0.293,-0.53711 0.1465,-0.16114 0.34175,-0.28321 0.58588,-0.36621 0.24425,-0.0976 0.55175,-0.14649 0.92775,-0.14649 0.0637,0 0.127,0.01 0.19537,0.0244 0.0775,0 0.16113,0 0.24413,0 0.0775,0 0.15137,0.01 0.21975,0.0244 0.0637,0 0.1025,0 0.1225,0 l 0,1.04981 c -0.0337,-0.0146 -0.0975,-0.0244 -0.19525,-0.0244 -0.0975,-0.0147 -0.1905,-0.0244 -0.26863,-0.0244 -0.1175,0 -0.2295,0.0195 -0.34175,0.0488 -0.0975,0.0195 -0.19037,0.0586 -0.2685,0.12207 -0.0838,0.0488 -0.1465,0.12208 -0.19537,0.21973 -0.0337,0.0977 -0.0488,0.21972 -0.0488,0.36621 l 0,0.51269 1.26962,0 0,1.07422 -1.26962,0 0,4.73633 -1.34275,0 0,-4.73633 z m 0,0"
       id="path217" />
    <path
       inkscape:connector-curvature="0"
       style="fill:#211e1e;fill-opacity:1;fill-rule:nonzero;stroke:none"
       d="m 142.40786,292.06863 c -0.23438,0 -0.45413,-0.0391 -0.65925,-0.0977 -0.19525,-0.0635 -0.36625,-0.16113 -0.51263,-0.29297 -0.1465,-0.12695 -0.26375,-0.2832 -0.34187,-0.46387 -0.0875,-0.19531 -0.1225,-0.40527 -0.1225,-0.63476 0,-0.32227 0.0588,-0.61524 0.19525,-0.87891 0.1465,-0.25879 0.36625,-0.48828 0.65925,-0.68359 0.30262,-0.20996 0.69325,-0.38086 1.17187,-0.5127 0.48825,-0.14648 1.07413,-0.25879 1.75775,-0.34179 l 0,-0.1709 c 0,-0.29297 -0.0875,-0.50293 -0.24412,-0.63477 -0.1465,-0.12695 -0.38575,-0.19531 -0.708,-0.19531 -0.41013,0 -0.77638,0.083 -1.09863,0.24414 -0.332,0.16602 -0.61037,0.3418 -0.8545,0.53711 l -0.65925,-0.83008 c 0.30275,-0.29297 0.69338,-0.53711 1.17188,-0.73242 0.46875,-0.20996 1.00587,-0.31738 1.61137,-0.31738 0.39063,0 0.71288,0.0488 0.97663,0.14648 0.27337,0.083 0.49312,0.21484 0.65912,0.39062 0.15625,0.18067 0.27338,0.4004 0.34175,0.65918 0.0775,0.26368 0.1225,0.56153 0.1225,0.90332 l 0,2.39258 c 0,0.3418 0,0.62989 0.025,0.85449 0.03,0.2295 0.0775,0.41504 0.1465,0.56153 l -1.36712,0 c -0.0387,-0.12695 -0.0687,-0.24414 -0.0975,-0.3418 -0.02,-0.0977 -0.025,-0.22461 -0.025,-0.39062 -0.3125,0.29297 -0.63475,0.50781 -0.9765,0.63476 -0.34188,0.12696 -0.7325,0.19531 -1.17188,0.19531 z m 0.48825,-1.0498 c 0.3515,0 0.664,-0.0537 0.92775,-0.1709 0.27337,-0.12696 0.5175,-0.29297 0.73237,-0.48828 l 0,-1.29395 c -0.82025,0.11719 -1.4355,0.27832 -1.8555,0.48828 -0.41012,0.19532 -0.61037,0.44922 -0.61037,0.75684 0,0.24414 0.0738,0.4248 0.21975,0.53711 0.1465,0.11719 0.34187,0.1709 0.586,0.1709 z m 0,0"
       id="path219" />
    <path
       inkscape:connector-curvature="0"
       style="fill:#211e1e;fill-opacity:1;fill-rule:nonzero;stroke:none"
       d="m 147.36386,283.86551 1.36712,0 0,8.10546 -1.36712,0 0,-8.10546 z m 0,0"
       id="path221" />
    <path
       inkscape:connector-curvature="0"
       style="fill:#211e1e;fill-opacity:1;fill-rule:nonzero;stroke:none"
       d="m 152.75936,292.09305 c -0.36138,0 -0.708,-0.0635 -1.04975,-0.1709 -0.33213,-0.1123 -0.625,-0.29297 -0.879,-0.53711 -0.26363,-0.24414 -0.4785,-0.55176 -0.63475,-0.92774 -0.166,-0.39062 -0.24413,-0.85449 -0.24413,-1.3916 0,-0.55176 0.0825,-1.01562 0.26863,-1.3916 0.17575,-0.39063 0.3955,-0.69824 0.65912,-0.92773 0.27338,-0.24415 0.57125,-0.41504 0.90338,-0.5127 0.32225,-0.1123 0.63962,-0.1709 0.95212,-0.1709 0.32225,0 0.63963,0.0586 0.95213,0.1709 0.30275,0.0977 0.57125,0.26855 0.80562,0.5127 0.24413,0.24414 0.42488,0.57128 0.5615,0.97656 0.1465,0.39062 0.21975,0.8789 0.21975,1.46484 l 0,0.31738 -3.955,0 c 0.0125,0.52247 0.17088,0.90332 0.46388,1.14747 0.29287,0.24414 0.6445,0.36621 1.07412,0.36621 0.37113,0 0.68363,-0.0537 0.92775,-0.1709 0.25388,-0.12696 0.49313,-0.29785 0.708,-0.5127 l 0.708,0.70801 c -0.3125,0.3418 -0.67375,0.60547 -1.07412,0.78125 -0.39063,0.17578 -0.84963,0.26856 -1.36725,0.26856 z m 1.294,-3.58887 c -0.0875,-0.90821 -0.53225,-1.36719 -1.34288,-1.36719 -0.14637,0 -0.30762,0.0244 -0.46387,0.0732 -0.14638,0.0488 -0.288,0.13184 -0.415,0.24414 -0.13675,0.11719 -0.23925,0.26367 -0.31738,0.43945 -0.0875,0.16602 -0.1465,0.36621 -0.19525,0.61036 l 2.73438,0 z m 0,0"
       id="path223" />
    <path
       inkscape:connector-curvature="0"
       style="fill:#211e1e;fill-opacity:1;fill-rule:nonzero;stroke:none"
       d="m 156.46048,286.16043 1.34288,0 0,0.78125 c 0.0975,-0.0977 0.20987,-0.19531 0.34175,-0.29297 0.14649,-0.1123 0.29787,-0.20996 0.46387,-0.29297 0.17575,-0.0977 0.37113,-0.1709 0.58588,-0.21973 0.22462,-0.0488 0.46875,-0.0732 0.7325,-0.0732 0.5175,0 0.92774,0.14649 1.22062,0.43945 0.30763,0.29297 0.46388,0.72754 0.46388,1.29395 l 0,4.1748 -1.36713,0 0,-3.833 c 0,-0.61524 -0.28812,-0.92774 -0.8545,-0.92774 -0.293,0 -0.57125,0.0732 -0.83012,0.21973 -0.24413,0.13184 -0.498,0.3125 -0.75675,0.53711 l 0,4.0039 -1.34288,0 0,-5.81054 z m 0,0"
       id="path225" />
  </g>
</svg>
